<svg width="22" height="22" viewBox="0 0 22 22" fill="none" xmlns="http://www.w3.org/2000/svg">
<path d="M9.94922 12.1001V15.0752C9.94922 15.371 10.0545 15.6241 10.2649 15.8345C10.4754 16.0449 10.7286 16.1501 11.0245 16.1501C11.3205 16.1501 11.5735 16.0449 11.7838 15.8345C11.994 15.6241 12.0992 15.371 12.0992 15.0752V12.1001H15.0742C15.37 12.1001 15.6232 11.9949 15.8336 11.7844C16.044 11.574 16.1492 11.3208 16.1492 11.0248C16.1492 10.7289 16.044 10.4758 15.8336 10.2656C15.6232 10.0553 15.37 9.9502 15.0742 9.9502H12.0992V6.92517C12.0992 6.62934 11.9939 6.37621 11.7835 6.1658C11.573 5.9554 11.3198 5.8502 11.0239 5.8502C10.7279 5.8502 10.4748 5.9554 10.2646 6.1658C10.0543 6.37621 9.94922 6.62934 9.94922 6.92517V9.9502H6.92419C6.62836 9.9502 6.37524 10.0554 6.16484 10.2659C5.95443 10.4764 5.84922 10.7296 5.84922 11.0255C5.84922 11.3214 5.95443 11.5745 6.16484 11.7848C6.37524 11.995 6.62836 12.1001 6.92419 12.1001H9.94922ZM11.0009 21.3001C9.57627 21.3001 8.23724 21.0298 6.98377 20.4891C5.73029 19.9485 4.63994 19.2147 3.71272 18.2879C2.78549 17.361 2.05143 16.2711 1.51054 15.0182C0.96966 13.7652 0.699219 12.4264 0.699219 11.0018C0.699219 9.57298 0.970044 8.22993 1.51169 6.9727C2.05334 5.71548 2.78843 4.62186 3.71694 3.69185C4.64548 2.76185 5.73538 2.03074 6.98664 1.49852C8.23789 0.966305 9.57485 0.700195 10.9975 0.700195C12.4262 0.700195 13.7691 0.966196 15.0262 1.4982C16.2833 2.0302 17.377 2.76111 18.3072 3.69095C19.2374 4.6208 19.9686 5.71423 20.5008 6.97125C21.0331 8.22826 21.2992 9.57137 21.2992 11.0006C21.2992 12.4298 21.0332 13.7683 20.5012 15.0161C19.9692 16.2639 19.2384 17.3523 18.3087 18.2812C17.3791 19.2101 16.2859 19.9455 15.0292 20.4873C13.7725 21.0292 12.4297 21.3001 11.0009 21.3001ZM10.9992 19.1502C13.2744 19.1502 15.2015 18.3606 16.7806 16.7816C18.3597 15.2025 19.1492 13.2754 19.1492 11.0002C19.1492 8.72495 18.3597 6.79782 16.7806 5.21877C15.2015 3.6397 13.2744 2.85017 10.9992 2.85017C8.72398 2.85017 6.79684 3.6397 5.21779 5.21877C3.63873 6.79782 2.84919 8.72495 2.84919 11.0002C2.84919 13.2754 3.63873 15.2025 5.21779 16.7816C6.79684 18.3606 8.72398 19.1502 10.9992 19.1502Z" fill="white"/>
</svg>
