<svg width="374" height="286" viewBox="0 0 374 286" fill="none" xmlns="http://www.w3.org/2000/svg">
<rect width="374" height="286" rx="16" fill="url(#paint0_linear_9406_231188)"/>
<path d="M101.812 118.617L98.4922 122.846L101.812 127.074L105.132 122.846L101.812 118.617Z" fill="#BDD1FF" fill-opacity="0.6"/>
<path d="M318.109 156.801L314.789 161.029L318.109 165.258L321.429 161.029L318.109 156.801Z" fill="#BDD1FF" fill-opacity="0.6"/>
<path d="M230.265 68.2441L226.945 72.4727L230.265 76.7012L233.585 72.4726L230.265 68.2441Z" fill="#BDD1FF" fill-opacity="0.6"/>
<path d="M26.3199 223.087L23 227.315L26.3199 231.544L29.6398 227.315L26.3199 223.087Z" fill="#BDD1FF" fill-opacity="0.6"/>
<path d="M158.398 53.6404C156.718 53.6404 155.344 51.9004 155.344 49.7504C155.344 47.6004 156.71 45.8604 158.398 45.8604C160.086 45.8604 161.452 47.6004 161.452 49.7504C161.452 51.9004 160.086 53.6404 158.398 53.6404ZM158.398 47.8904C157.589 47.8904 156.938 48.7304 156.938 49.7504C156.938 50.7704 157.597 51.6104 158.398 51.6104C159.199 51.6104 159.858 50.7704 159.858 49.7504C159.858 48.7304 159.199 47.8904 158.398 47.8904Z" fill="#BDD1FF" fill-opacity="0.6"/>
<path d="M55.769 209.53C54.0888 209.53 52.7148 207.79 52.7148 205.64C52.7148 203.49 54.081 201.75 55.769 201.75C57.457 201.75 58.8231 203.49 58.8231 205.64C58.8231 207.79 57.457 209.53 55.769 209.53ZM55.769 203.78C54.9603 203.78 54.3087 204.62 54.3087 205.64C54.3087 206.66 54.9682 207.5 55.769 207.5C56.5698 207.5 57.2293 206.66 57.2293 205.64C57.2293 204.62 56.5698 203.78 55.769 203.78Z" fill="#BDD1FF" fill-opacity="0.6"/>
<path d="M56.5815 68.28C54.9013 68.28 53.5273 66.54 53.5273 64.39C53.5273 62.24 54.8935 60.5 56.5815 60.5C58.2695 60.5 59.6356 62.24 59.6356 64.39C59.6356 66.54 58.2695 68.28 56.5815 68.28ZM56.5815 62.53C55.7728 62.53 55.1211 63.37 55.1211 64.39C55.1211 65.41 55.7807 66.25 56.5815 66.25C57.3823 66.25 58.0418 65.41 58.0418 64.39C58.0418 63.37 57.3823 62.53 56.5815 62.53Z" fill="#BDD1FF" fill-opacity="0.6"/>
<path d="M284.511 51.78C282.831 51.78 281.457 50.04 281.457 47.89C281.457 45.74 282.823 44 284.511 44C286.199 44 287.565 45.74 287.565 47.89C287.565 50.04 286.199 51.78 284.511 51.78ZM284.511 46.03C283.702 46.03 283.051 46.87 283.051 47.89C283.051 48.91 283.71 49.75 284.511 49.75C285.312 49.75 285.972 48.91 285.972 47.89C285.972 46.87 285.312 46.03 284.511 46.03Z" fill="#BDD1FF" fill-opacity="0.6"/>
<path d="M347.554 140.94C345.874 140.94 344.5 139.2 344.5 137.05C344.5 134.9 345.866 133.16 347.554 133.16C349.242 133.16 350.608 134.9 350.608 137.05C350.608 139.2 349.242 140.94 347.554 140.94ZM347.554 135.19C346.745 135.19 346.094 136.03 346.094 137.05C346.094 138.07 346.753 138.91 347.554 138.91C348.355 138.91 349.014 138.07 349.014 137.05C349.014 136.03 348.355 135.19 347.554 135.19Z" fill="#BDD1FF" fill-opacity="0.6"/>
<path d="M328.184 91.0401C327.98 91.0401 327.775 90.9401 327.618 90.7401C327.304 90.3401 327.304 89.7001 327.618 89.3101L331.269 84.6701C331.575 84.2701 332.086 84.2701 332.392 84.6701C332.706 85.0701 332.706 85.7101 332.392 86.1001L328.741 90.7401C328.584 90.9401 328.38 91.0401 328.176 91.0401H328.184Z" fill="#BDD1FF" fill-opacity="0.6"/>
<path d="M331.834 91.0401C331.63 91.0401 331.426 90.9401 331.269 90.7401L327.618 86.1001C327.304 85.7001 327.304 85.0601 327.618 84.6701C327.925 84.2701 328.435 84.2701 328.741 84.6701L332.392 89.3101C332.706 89.7101 332.706 90.3501 332.392 90.7401C332.235 90.9401 332.031 91.0401 331.827 91.0401H331.834Z" fill="#BDD1FF" fill-opacity="0.6"/>
<path d="M41.9454 115.05C41.7412 115.05 41.5371 114.95 41.3801 114.75C41.066 114.35 41.066 113.71 41.3801 113.32L45.0309 108.67C45.3371 108.27 45.8474 108.27 46.1536 108.67C46.4677 109.07 46.4677 109.71 46.1536 110.1L42.5028 114.75C42.3458 114.95 42.1416 115.05 41.9375 115.05H41.9454Z" fill="#BDD1FF" fill-opacity="0.6"/>
<path d="M45.5884 115.05C45.3843 115.05 45.1801 114.95 45.0231 114.75L41.3723 110.1C41.0582 109.7 41.0582 109.06 41.3723 108.67C41.6785 108.27 42.1888 108.27 42.495 108.67L46.1458 113.32C46.4599 113.72 46.4599 114.36 46.1458 114.75C45.9888 114.95 45.7847 115.05 45.5805 115.05H45.5884Z" fill="#BDD1FF" fill-opacity="0.6"/>
<path d="M110.129 88.3399C109.925 88.3399 109.721 88.2399 109.564 88.0399C109.25 87.6399 109.25 86.9999 109.564 86.6099L113.207 81.9699C113.521 81.5699 114.023 81.5699 114.329 81.9699C114.643 82.3699 114.643 83.0099 114.329 83.3999L110.686 88.0499C110.529 88.2499 110.325 88.3499 110.121 88.3499L110.129 88.3399Z" fill="#BDD1FF" fill-opacity="0.6"/>
<path d="M113.772 88.3402C113.568 88.3402 113.364 88.2402 113.207 88.0402L109.564 83.3902C109.25 82.9902 109.25 82.3502 109.564 81.9602C109.878 81.5602 110.38 81.5602 110.686 81.9602L114.329 86.6002C114.643 87.0002 114.643 87.6402 114.329 88.0302C114.172 88.2302 113.968 88.3302 113.764 88.3302L113.772 88.3402Z" fill="#BDD1FF" fill-opacity="0.6"/>
<path d="M347.555 201.74C347.351 201.74 347.146 201.64 346.989 201.44C346.675 201.04 346.675 200.4 346.989 200.01L350.64 195.36C350.954 194.96 351.457 194.96 351.763 195.36C352.077 195.76 352.077 196.4 351.763 196.79L348.112 201.44C347.955 201.64 347.751 201.74 347.547 201.74H347.555Z" fill="#BDD1FF" fill-opacity="0.6"/>
<path d="M351.198 201.74C350.994 201.74 350.789 201.64 350.632 201.44L346.982 196.79C346.668 196.39 346.668 195.75 346.982 195.36C347.296 194.96 347.798 194.96 348.104 195.36L351.755 200.01C352.069 200.41 352.069 201.05 351.755 201.44C351.598 201.64 351.394 201.74 351.19 201.74H351.198Z" fill="#BDD1FF" fill-opacity="0.6"/>
<defs>
<linearGradient id="paint0_linear_9406_231188" x1="187" y1="42.0357" x2="187" y2="871.241" gradientUnits="userSpaceOnUse">
<stop stop-color="white"/>
<stop offset="1" stop-color="#BBEDFE"/>
</linearGradient>
</defs>
</svg>
