<svg width="16" height="20" viewBox="0 0 16 20" fill="none" xmlns="http://www.w3.org/2000/svg">
<path d="M10.4793 2.51582L11.2792 1.07283C11.2894 1.05432 11.2959 1.03396 11.2983 1.01293C11.3007 0.991903 11.299 0.970606 11.2931 0.950259C11.2873 0.929912 11.2775 0.910913 11.2643 0.894347C11.2512 0.877781 11.2348 0.863972 11.2163 0.853709C11.1789 0.832983 11.1349 0.827957 11.0938 0.839738C11.0527 0.85152 11.0179 0.879142 10.9972 0.91653L10.1885 2.37551C9.4985 2.07302 8.75327 1.91685 7.99986 1.91685C7.24646 1.91685 6.50123 2.07302 5.81122 2.37551L5.00248 0.91653C4.98176 0.879142 4.94703 0.85152 4.90593 0.839738C4.86484 0.827957 4.82075 0.832983 4.78336 0.853709C4.74598 0.874436 4.71835 0.909166 4.70657 0.950259C4.69479 0.991352 4.69981 1.03544 4.72054 1.07283L5.52042 2.51583C4.75903 2.89114 4.1157 3.46889 3.66101 4.18571C3.20632 4.90253 2.95782 5.73072 2.94278 6.57945H13.0569C13.0419 5.73072 12.7934 4.90252 12.3387 4.1857C11.884 3.46888 11.2407 2.89113 10.4793 2.51582ZM5.66578 4.72882C5.58225 4.72882 5.50059 4.70405 5.43114 4.65765C5.36169 4.61124 5.30756 4.54528 5.27559 4.46811C5.24362 4.39094 5.23526 4.30602 5.25156 4.2241C5.26785 4.14217 5.30808 4.06692 5.36714 4.00785C5.4262 3.94879 5.50146 3.90857 5.58338 3.89227C5.66531 3.87597 5.75022 3.88434 5.82739 3.9163C5.90457 3.94827 5.97053 4.0024 6.01693 4.07185C6.06334 4.1413 6.08811 4.22296 6.08811 4.30649C6.08798 4.41846 6.04345 4.52581 5.96427 4.60498C5.8851 4.68416 5.77775 4.7287 5.66578 4.72882ZM10.3339 4.72882C10.2504 4.72882 10.1687 4.70405 10.0993 4.65765C10.0298 4.61124 9.97571 4.54528 9.94374 4.46811C9.91177 4.39094 9.90341 4.30602 9.91971 4.2241C9.936 4.14217 9.97623 4.06692 10.0353 4.00785C10.0944 3.94879 10.1696 3.90857 10.2515 3.89227C10.3335 3.87597 10.4184 3.88434 10.4955 3.9163C10.5727 3.94827 10.6387 4.0024 10.6851 4.07185C10.7315 4.1413 10.7563 4.22296 10.7563 4.30649C10.7561 4.41846 10.7116 4.52581 10.6324 4.60498C10.5532 4.68416 10.4459 4.7287 10.3339 4.72882ZM2.94271 14.3097C2.94271 14.6339 3.07152 14.9449 3.3008 15.1742C3.53009 15.4035 3.84106 15.5323 4.16532 15.5323H4.97665V18.0331C4.97625 18.1822 5.00527 18.3299 5.06207 18.4679C5.11886 18.6058 5.2023 18.7311 5.30762 18.8367C5.41293 18.9423 5.53805 19.0261 5.6758 19.0833C5.81355 19.1404 5.96122 19.1698 6.11036 19.1698C6.2595 19.1698 6.40718 19.1404 6.54493 19.0833C6.68268 19.0261 6.80779 18.9423 6.91311 18.8367C7.01842 18.7311 7.10187 18.6058 7.15866 18.4679C7.21545 18.3299 7.24448 18.1822 7.24408 18.0331V15.5323H8.75562V18.0331C8.75522 18.1822 8.78425 18.3299 8.84104 18.4679C8.89783 18.6058 8.98128 18.7311 9.08659 18.8367C9.19191 18.9423 9.31702 19.0261 9.45477 19.0833C9.59252 19.1404 9.7402 19.1698 9.88934 19.1698C10.0385 19.1698 10.1862 19.1404 10.3239 19.0833C10.4617 19.0261 10.5868 18.9423 10.6921 18.8367C10.7974 18.7311 10.8808 18.6058 10.9376 18.4679C10.9944 18.3299 11.0235 18.1822 11.0231 18.0331V15.5323H11.8344C12.1587 15.5323 12.4696 15.4035 12.6989 15.1742C12.9282 14.9449 13.057 14.6339 13.057 14.3097V6.97954H2.94271V14.3097ZM1.38664 6.78503C1.08607 6.78537 0.797902 6.90493 0.585364 7.11747C0.372826 7.33001 0.253274 7.61817 0.252934 7.91875V12.6425C0.25253 12.7916 0.281555 12.9394 0.338349 13.0773C0.395142 13.2152 0.478586 13.3405 0.583902 13.4461C0.689217 13.5517 0.814333 13.6355 0.952082 13.6927C1.08983 13.7498 1.23751 13.7793 1.38665 13.7793C1.53579 13.7793 1.68346 13.7498 1.82121 13.6927C1.95896 13.6355 2.08408 13.5517 2.18939 13.4461C2.29471 13.3405 2.37815 13.2152 2.43494 13.0773C2.49174 12.9394 2.52076 12.7916 2.52036 12.6425V7.91875C2.52002 7.61817 2.40047 7.33 2.18793 7.11746C1.97539 6.90492 1.68722 6.78537 1.38664 6.78503ZM14.6131 6.78503C14.3125 6.78537 14.0243 6.90492 13.8118 7.11746C13.5992 7.33 13.4797 7.61817 13.4793 7.91875V12.6425C13.4789 12.7916 13.508 12.9394 13.5648 13.0773C13.6215 13.2152 13.705 13.3405 13.8103 13.4461C13.9156 13.5517 14.0407 13.6355 14.1785 13.6927C14.3162 13.7498 14.4639 13.7793 14.6131 13.7793C14.7622 13.7793 14.9099 13.7498 15.0476 13.6927C15.1854 13.6355 15.3105 13.5517 15.4158 13.4461C15.5211 13.3405 15.6046 13.2152 15.6614 13.0773C15.7181 12.9394 15.7472 12.7916 15.7468 12.6425V7.91875C15.7464 7.61817 15.6269 7.33001 15.4143 7.11747C15.2018 6.90493 14.9136 6.78537 14.6131 6.78503Z" fill="#052C85"/>
</svg>
