<svg width="20" height="20" viewBox="0 0 20 20" fill="none" xmlns="http://www.w3.org/2000/svg">
<path d="M19.4794 8.2457L17.7277 8.04914C17.5388 7.29734 17.2425 6.58273 16.843 5.91582L17.9432 4.53727C18.1293 4.3041 18.1105 3.9684 17.8996 3.75746L16.2423 2.1002C16.0314 1.88926 15.6956 1.87047 15.4624 2.0566L14.0845 3.15656C13.4178 2.75711 12.703 2.46078 11.9507 2.27187L11.754 0.520586C11.7207 0.224102 11.47 0 11.1717 0H8.82797C8.52965 0 8.27894 0.224141 8.2457 0.520586L8.04922 2.27184C7.29684 2.46066 6.58211 2.75691 5.91531 3.15633L4.53754 2.0566C4.30438 1.87039 3.96867 1.88922 3.7577 2.1002L2.10043 3.75742C1.88949 3.96832 1.8707 4.30406 2.0568 4.53723L3.15645 5.91508C2.75699 6.58187 2.4607 7.29672 2.27184 8.04918L0.520625 8.24566C0.224141 8.27895 0 8.52965 0 8.82797V11.1717C0 11.47 0.224102 11.7207 0.520547 11.7539L2.2723 11.9507C2.46109 12.7026 2.75742 13.4172 3.15688 14.0841L2.0566 15.4624C1.87051 15.6956 1.88926 16.0313 2.1002 16.2423L3.75746 17.8996C3.9684 18.1105 4.3041 18.1293 4.53727 17.9432L5.91539 16.8433C6.58219 17.2428 7.29688 17.5391 8.04918 17.728L8.2457 19.4794C8.27898 19.7758 8.52965 20 8.82797 20H11.1717C11.47 20 11.7207 19.7759 11.7539 19.4794L11.9507 17.7277C12.7026 17.5388 13.4172 17.2425 14.0842 16.843L15.4627 17.9432C15.6959 18.1294 16.0316 18.1105 16.2425 17.8996L17.8998 16.2423C18.1107 16.0313 18.1295 15.6955 17.9434 15.4624L16.8434 14.0845C17.2429 13.4178 17.5392 12.7029 17.7281 11.9506L19.4794 11.7539C19.7759 11.7206 20 11.47 20 11.1717V8.82797C20 8.52965 19.7759 8.27894 19.4794 8.2457ZM8.9507 12.6112C8.65727 12.7346 8.30691 12.592 8.1834 12.2984C8.18332 12.2981 7.90043 11.6258 7.90043 11.6258H5.85238L5.56605 12.3002C5.44148 12.5936 5.09047 12.7348 4.79773 12.6105C4.49988 12.484 4.36094 12.14 4.48738 11.8421L6.24555 7.70125C6.3518 7.45102 6.61465 7.28516 6.88246 7.28516C7.15523 7.28516 7.41598 7.45234 7.52137 7.70285C7.52258 7.7057 9.26359 11.8439 9.26359 11.8439C9.38906 12.1422 9.24898 12.4857 8.9507 12.6112ZM11.4213 10.8276C11.285 10.8276 11.0562 10.8285 10.8377 10.8296V12.0712C10.8377 12.3948 10.5754 12.6571 10.2518 12.6571C9.9282 12.6571 9.66586 12.3948 9.66586 12.0712V7.87109C9.66586 7.72305 9.72488 7.57559 9.8266 7.4682C9.93598 7.35266 10.0927 7.28516 10.2518 7.28516H11.4213C12.4107 7.28516 13.2157 8.07973 13.2157 9.05637C13.2157 10.033 12.4107 10.8276 11.4213 10.8276ZM14.8563 12.0711C14.8563 12.3947 14.5939 12.6571 14.2703 12.6571C13.9467 12.6571 13.6844 12.3947 13.6844 12.0711V7.87109C13.6844 7.5475 13.9467 7.28516 14.2703 7.28516C14.5939 7.28516 14.8563 7.5475 14.8563 7.87109V12.0711Z" fill="#052C85"/>
</svg>
