<svg width="24" height="24" viewBox="0 0 24 24" fill="none" xmlns="http://www.w3.org/2000/svg">
<g clip-path="url(#clip0_3144_134439)">
<g filter="url(#filter0_d_3144_134439)">
<path d="M7.61987 12.5446H8.88883L8.25723 11.0435L7.61987 12.5446Z" fill="#1246BC"/>
<path d="M13.7055 10.1484H13.0073C13.0081 10.4315 13.0087 10.7244 13.0087 10.8676C13.0087 11.0346 13.0099 11.3186 13.0112 11.5892C13.2705 11.588 13.5407 11.5868 13.7055 11.5868C14.1104 11.5868 14.4525 11.2575 14.4525 10.8676C14.4525 10.4778 14.1104 10.1484 13.7055 10.1484Z" fill="#1246BC"/>
<path d="M23.3753 9.89484L21.2732 9.65897C21.0466 8.75681 20.691 7.89928 20.2117 7.09898L21.5319 5.44472C21.7552 5.16492 21.7327 4.76208 21.4795 4.50895L19.4908 2.52023C19.2376 2.26711 18.8347 2.24456 18.5549 2.46792L16.9014 3.78787C16.1014 3.30853 15.2436 2.95294 14.3408 2.72625L14.1048 0.624703C14.0648 0.268922 13.764 0 13.406 0H10.5936C10.2356 0 9.93473 0.268969 9.89484 0.624703L9.65906 2.7262C8.7562 2.9528 7.89853 3.3083 7.09838 3.78759L5.44505 2.46792C5.16525 2.24447 4.76241 2.26706 4.50923 2.52023L2.52052 4.50891C2.26739 4.76198 2.24484 5.16488 2.46816 5.44467L3.78773 7.09809C3.30839 7.89825 2.95284 8.75606 2.7262 9.65902L0.62475 9.8948C0.268969 9.93473 0 10.2356 0 10.5936V13.406C0 13.764 0.268922 14.0648 0.624656 14.1047L2.72677 14.3408C2.95331 15.2431 3.30891 16.1007 3.78825 16.9009L2.46792 18.5549C2.24461 18.8347 2.26711 19.2375 2.52023 19.4907L4.50895 21.4795C4.76208 21.7326 5.16492 21.7551 5.44472 21.5318L7.09847 20.212C7.89863 20.6914 8.75625 21.047 9.65902 21.2737L9.89484 23.3752C9.93478 23.731 10.2356 24 10.5936 24H13.406C13.764 24 14.0648 23.731 14.1047 23.3753L14.3408 21.2732C15.2431 21.0466 16.1007 20.691 16.901 20.2116L18.5553 21.5318C18.8351 21.7553 19.238 21.7327 19.491 21.4795L21.4798 19.4907C21.7329 19.2376 21.7554 18.8347 21.5321 18.5549L20.2121 16.9013C20.6915 16.1013 21.0471 15.2435 21.2738 14.3407L23.3753 14.1047C23.731 14.0647 24 13.764 24 13.406V10.5936C24 10.2356 23.731 9.93473 23.3753 9.89484ZM10.7408 15.1335C10.3887 15.2815 9.9683 15.1103 9.82008 14.758C9.81998 14.7578 9.48052 13.9509 9.48052 13.9509H7.02286L6.67927 14.7602C6.52978 15.1123 6.10856 15.2817 5.75728 15.1326C5.39986 14.9808 5.23312 14.568 5.38486 14.2106L7.49466 9.2415C7.62216 8.94122 7.93758 8.74219 8.25895 8.74219C8.58628 8.74219 8.89917 8.94281 9.02564 9.24342C9.02709 9.24684 11.1163 14.2127 11.1163 14.2127C11.2669 14.5707 11.0988 14.9829 10.7408 15.1335ZM13.7055 12.9931C13.542 12.9931 13.2675 12.9942 13.0053 12.9955V14.4854C13.0053 14.8737 12.6905 15.1885 12.3022 15.1885C11.9138 15.1885 11.599 14.8737 11.599 14.4854V9.44531C11.599 9.26766 11.6699 9.0907 11.7919 8.96184C11.9232 8.82319 12.1113 8.74219 12.3022 8.74219H13.7055C14.8928 8.74219 15.8588 9.69567 15.8588 10.8676C15.8588 12.0396 14.8928 12.9931 13.7055 12.9931ZM17.8275 14.4854C17.8275 14.8737 17.5127 15.1885 17.1244 15.1885C16.7361 15.1885 16.4212 14.8737 16.4212 14.4854V9.44531C16.4212 9.057 16.7361 8.74219 17.1244 8.74219C17.5127 8.74219 17.8275 9.057 17.8275 9.44531V14.4854Z" fill="#1246BC"/>
</g>
</g>
<defs>
<filter id="filter0_d_3144_134439" x="-4" y="-4" width="32" height="32" filterUnits="userSpaceOnUse" color-interpolation-filters="sRGB">
<feFlood flood-opacity="0" result="BackgroundImageFix"/>
<feColorMatrix in="SourceAlpha" type="matrix" values="0 0 0 0 0 0 0 0 0 0 0 0 0 0 0 0 0 0 127 0" result="hardAlpha"/>
<feOffset/>
<feGaussianBlur stdDeviation="2"/>
<feComposite in2="hardAlpha" operator="out"/>
<feColorMatrix type="matrix" values="0 0 0 0 0.6 0 0 0 0 0.713726 0 0 0 0 0.968627 0 0 0 1 0"/>
<feBlend mode="normal" in2="BackgroundImageFix" result="effect1_dropShadow_3144_134439"/>
<feBlend mode="normal" in="SourceGraphic" in2="effect1_dropShadow_3144_134439" result="shape"/>
</filter>
<clipPath id="clip0_3144_134439">
<rect width="24" height="24" fill="white"/>
</clipPath>
</defs>
</svg>
