<svg width="28" height="28" viewBox="0 0 28 28" fill="none" xmlns="http://www.w3.org/2000/svg">
<path d="M13.9975 6.22803C9.71052 6.22803 6.22266 9.71589 6.22266 14.0029C6.22266 18.2899 9.71052 21.7778 13.9975 21.7778C18.2845 21.7778 21.7724 18.2899 21.7724 14.0029C21.7724 9.71589 18.2845 6.22803 13.9975 6.22803ZM13.9975 7.67687C14.8136 7.67687 15.6957 8.97418 16.1619 10.9729H11.8332C12.2995 8.97428 13.1816 7.67687 13.9975 7.67687ZM7.67159 14.0029C7.67159 13.4561 7.74868 12.9282 7.87968 12.4219H10.1268C10.0776 12.9298 10.0514 13.4579 10.0514 14.0029C10.0514 14.5479 10.0776 15.076 10.1268 15.5839H7.87968C7.74868 15.0776 7.67159 14.5497 7.67159 14.0029ZM8.44649 17.0329H10.3417C10.5503 18.0606 10.8659 18.9616 11.2626 19.6984C10.0697 19.1232 9.08076 18.1904 8.44639 17.0329H8.44649ZM10.3417 10.9729H8.44649C9.08086 9.81536 10.0697 8.88256 11.2627 8.30741C10.866 9.0442 10.5503 9.94518 10.3418 10.9729H10.3417ZM13.9975 20.3288C13.1815 20.3288 12.2994 19.0315 11.8332 17.0328H16.1619C15.6957 19.0315 14.8135 20.3288 13.9975 20.3288ZM16.4051 15.5839H11.5901C11.5341 15.0812 11.5003 14.5544 11.5003 14.0029C11.5003 13.4514 11.5341 12.9246 11.5901 12.4219H16.4051C16.4611 12.9246 16.4948 13.4514 16.4948 14.0029C16.4948 14.5544 16.4611 15.0812 16.4051 15.5839ZM16.7325 19.6984C17.1291 18.9616 17.4448 18.0606 17.6533 17.0329H19.5486C18.9142 18.1904 17.9253 19.1232 16.7324 19.6984H16.7325ZM20.3236 14.0029C20.3236 14.5497 20.2465 15.0776 20.1155 15.5839H17.8684C17.9176 15.076 17.9438 14.5479 17.9438 14.0029C17.9438 13.4579 17.9176 12.9298 17.8684 12.4219H20.1155C20.2465 12.9282 20.3236 13.4561 20.3236 14.0029ZM17.6533 10.9729C17.4447 9.94518 17.1291 9.0442 16.7325 8.30741C17.9253 8.88256 18.9143 9.81536 19.5487 10.9729H17.6534H17.6533Z" fill="url(#paint0_linear_638_15786)"/>
<path d="M25.0668 9.37664C24.9128 9.00751 24.489 8.83065 24.1191 8.98708C23.75 9.14116 23.5755 9.56528 23.7296 9.93481C25.3844 13.8999 24.4914 18.424 21.4548 21.4606C19.4618 23.4536 16.8131 24.5511 13.9971 24.5511C11.181 24.5511 8.53235 23.4536 6.53938 21.4606C4.54642 19.4677 3.44894 16.819 3.44894 14.0029C3.44894 11.1869 4.54642 8.53821 6.53938 6.54525C9.57562 3.50901 14.0997 2.6147 18.066 4.27084C18.6901 4.53048 19.2789 4.87015 19.8446 5.24773C19.7526 5.49657 19.6981 5.76014 19.6981 6.03343C19.6981 6.63922 19.9343 7.20878 20.3628 7.63723C20.7912 8.06567 21.3608 8.30194 21.9666 8.30194C22.5724 8.30194 23.1423 8.06567 23.5708 7.63723C23.9992 7.20878 24.2351 6.63922 24.2351 6.03343C24.2351 5.42763 23.9988 4.85768 23.5708 4.42963C22.8353 3.69421 21.632 3.59454 20.7633 4.12177C20.0862 3.65837 19.3764 3.24662 18.6233 2.93316C14.1141 1.05107 8.96786 2.06685 5.51496 5.52083C3.24802 7.78738 2 10.7997 2 14.0029C2 17.2062 3.24802 20.2185 5.51496 22.485C7.78151 24.752 10.7938 26 13.9971 26C17.2003 26 20.2126 24.752 22.4792 22.485C25.9333 19.0317 26.949 13.8862 25.0668 9.37674V9.37664ZM21.9666 5.21425C22.1856 5.21425 22.3911 5.29919 22.5459 5.45444C22.7008 5.60891 22.7858 5.81454 22.7858 6.03343C22.7858 6.25232 22.7004 6.45795 22.5459 6.61281H22.5456C22.2366 6.92253 21.6969 6.92174 21.3871 6.61281C21.2326 6.45795 21.1473 6.25192 21.1473 6.03343C21.1473 5.81493 21.2322 5.60891 21.3871 5.45405C21.542 5.29958 21.748 5.21425 21.9665 5.21425H21.9666Z" fill="url(#paint1_linear_638_15786)"/>
<defs>
<linearGradient id="paint0_linear_638_15786" x1="22.7442" y1="7.84779" x2="5.25076" y2="21.7777" gradientUnits="userSpaceOnUse">
<stop stop-color="#052C85"/>
<stop offset="0.234044" stop-color="#1D5AE4"/>
<stop offset="0.446814" stop-color="#052C85"/>
<stop offset="0.710177" stop-color="#1D5AE4"/>
<stop offset="0.904358" stop-color="#052C85"/>
</linearGradient>
<linearGradient id="paint1_linear_638_15786" x1="27.5" y1="4.5" x2="0.500002" y2="26" gradientUnits="userSpaceOnUse">
<stop stop-color="#052C85"/>
<stop offset="0.234044" stop-color="#1D5AE4"/>
<stop offset="0.446814" stop-color="#052C85"/>
<stop offset="0.710177" stop-color="#1D5AE4"/>
<stop offset="0.904358" stop-color="#052C85"/>
</linearGradient>
</defs>
</svg>
