<svg width="18" height="20" viewBox="0 0 18 20" fill="none" xmlns="http://www.w3.org/2000/svg">
<path d="M4.2075 19.3001C3.51039 19.3001 2.9265 19.0647 2.45583 18.5941C1.98515 18.1234 1.7498 17.5395 1.7498 16.8424V3.9001H1.4998C1.20397 3.9001 0.950846 3.79486 0.74043 3.58438C0.530013 3.37391 0.424805 3.12071 0.424805 2.82478C0.424805 2.52886 0.530013 2.27578 0.74043 2.06553C0.950846 1.85526 1.20397 1.75013 1.4998 1.75013H5.94978C5.94978 1.45526 6.05516 1.20078 6.26593 0.986678C6.4767 0.772578 6.73285 0.665527 7.03438 0.665527H11.0152C11.3167 0.665527 11.5729 0.770911 11.7836 0.981677C11.9944 1.19244 12.0998 1.44859 12.0998 1.75013H16.5498C16.8456 1.75013 17.0987 1.85537 17.3091 2.06585C17.5195 2.27634 17.6248 2.52953 17.6248 2.82545C17.6248 3.12138 17.5195 3.37448 17.3091 3.58473C17.0987 3.79498 16.8456 3.9001 16.5498 3.9001H16.2998V16.8424C16.2998 17.5395 16.0644 18.1234 15.5937 18.5941C15.1231 19.0647 14.5392 19.3001 13.8421 19.3001H4.2075ZM14.1498 3.9001H3.89978V16.8424C3.89978 16.9321 3.92863 17.0059 3.98633 17.0636C4.04403 17.1213 4.11775 17.1501 4.2075 17.1501H13.8421C13.9318 17.1501 14.0055 17.1213 14.0632 17.0636C14.1209 17.0059 14.1498 16.9321 14.1498 16.8424V3.9001ZM6.95398 15.1251C7.2499 15.1251 7.50298 15.0199 7.71323 14.8095C7.9235 14.5991 8.02863 14.3459 8.02863 14.0501V7.00008C8.02863 6.70426 7.92339 6.45114 7.7129 6.24073C7.50242 6.03031 7.24922 5.9251 6.9533 5.9251C6.65737 5.9251 6.40428 6.03031 6.19403 6.24073C5.98378 6.45114 5.87865 6.70426 5.87865 7.00008V14.0501C5.87865 14.3459 5.9839 14.5991 6.19438 14.8095C6.40485 15.0199 6.65805 15.1251 6.95398 15.1251ZM11.0963 15.1251C11.3922 15.1251 11.6453 15.0199 11.8555 14.8095C12.0658 14.5991 12.1709 14.3459 12.1709 14.0501V7.00008C12.1709 6.70426 12.0657 6.45114 11.8552 6.24073C11.6447 6.03031 11.3915 5.9251 11.0956 5.9251C10.7997 5.9251 10.5466 6.03031 10.3363 6.24073C10.1261 6.45114 10.0209 6.70426 10.0209 7.00008V14.0501C10.0209 14.3459 10.1262 14.5991 10.3367 14.8095C10.5471 15.0199 10.8003 15.1251 11.0963 15.1251Z" fill="#052C85"/>
</svg>
