<svg width="24" height="24" viewBox="0 0 24 24" fill="none" xmlns="http://www.w3.org/2000/svg">
<mask id="mask0_9597_219303" style="mask-type:alpha" maskUnits="userSpaceOnUse" x="0" y="0" width="24" height="24">
<rect width="24" height="24" fill="#D9D9D9"/>
</mask>
<g mask="url(#mask0_9597_219303)">
<path d="M15.763 12.5116C15.9502 12.3894 16.0438 12.2201 16.0438 12.0036C16.0438 11.7872 15.9502 11.6155 15.763 11.4885L10.24 7.91357C10.0195 7.79306 9.80633 7.79097 9.60056 7.90732C9.39479 8.02366 9.29191 8.20137 9.29191 8.44047V15.5597C9.29191 15.7988 9.39479 15.9765 9.60056 16.0928C9.80633 16.2092 10.0195 16.2071 10.24 16.0866L15.763 12.5116ZM5.30731 21.15C4.62343 21.15 4.04284 20.9114 3.56556 20.4341C3.08826 19.9568 2.84961 19.3762 2.84961 18.6923V5.3078C2.84961 4.62392 3.08826 4.04333 3.56556 3.56605C4.04284 3.08875 4.62343 2.8501 5.30731 2.8501H18.6919C19.3757 2.8501 19.9563 3.08875 20.4336 3.56605C20.9109 4.04333 21.1496 4.62392 21.1496 5.3078V18.6923C21.1496 19.3762 20.9109 19.9568 20.4336 20.4341C19.9563 20.9114 19.3757 21.15 18.6919 21.15H5.30731ZM5.30731 19.0001H18.6919C18.7688 19.0001 18.8393 18.968 18.9034 18.9039C18.9675 18.8398 18.9996 18.7693 18.9996 18.6923V5.3078C18.9996 5.23087 18.9675 5.16034 18.9034 5.09622C18.8393 5.03212 18.7688 5.00007 18.6919 5.00007H5.30731C5.23038 5.00007 5.15985 5.03212 5.09573 5.09622C5.03163 5.16034 4.99958 5.23087 4.99958 5.3078V18.6923C4.99958 18.7693 5.03163 18.8398 5.09573 18.9039C5.15985 18.968 5.23038 19.0001 5.30731 19.0001Z" fill="url(#paint0_linear_9597_219303)"/>
</g>
<defs>
<linearGradient id="paint0_linear_9597_219303" x1="2.84961" y1="2.8501" x2="21.0436" y2="3.06752" gradientUnits="userSpaceOnUse">
<stop stop-color="#9BACD2"/>
<stop offset="1" stop-color="#9BACD2"/>
</linearGradient>
</defs>
</svg>
