<svg width="40" height="40" viewBox="0 0 40 40" fill="none" xmlns="http://www.w3.org/2000/svg">
<rect x="0.5" y="0.5" width="39" height="39" rx="7.5" stroke="url(#paint0_linear_9504_212603)"/>
<mask id="mask0_9504_212603" style="mask-type:alpha" maskUnits="userSpaceOnUse" x="8" y="8" width="24" height="24">
<rect x="8" y="8" width="24" height="24" fill="#D9D9D9"/>
</mask>
<g mask="url(#mask0_9504_212603)">
<path d="M15.9252 25.1499H24.0752C24.371 25.1499 24.6241 25.0447 24.8345 24.8342C25.0449 24.6237 25.1501 24.3705 25.1501 24.0746C25.1501 23.7787 25.0449 23.5256 24.8345 23.3153C24.6241 23.1051 24.371 23 24.0752 23H15.9252C15.6293 23 15.3762 23.1052 15.1658 23.3157C14.9554 23.5261 14.8502 23.7793 14.8502 24.0753C14.8502 24.3712 14.9554 24.6243 15.1658 24.8345C15.3762 25.0448 15.6293 25.1499 15.9252 25.1499ZM18.9002 18.0154L18.1021 17.2076C17.9011 17.0025 17.6515 16.8983 17.3533 16.8951C17.0551 16.8919 16.8027 16.9936 16.5962 17.2001C16.386 17.4103 16.2809 17.6602 16.2809 17.9499C16.2809 18.2397 16.3867 18.4903 16.5983 18.7018L19.1425 21.2461C19.3869 21.4935 19.672 21.6172 19.9979 21.6172C20.3238 21.6172 20.6104 21.4935 20.8578 21.2461L23.4021 18.7018C23.6072 18.4967 23.7098 18.2461 23.7098 17.9499C23.7098 17.6538 23.6065 17.4024 23.4 17.1959C23.1898 16.9858 22.9383 16.8823 22.6454 16.8855C22.3524 16.8887 22.1034 16.9961 21.8983 17.2076L21.0501 18.0654V14.7749C21.0501 14.4791 20.9449 14.226 20.7344 14.0156C20.524 13.8052 20.2708 13.7 19.9748 13.7C19.6789 13.7 19.4258 13.8052 19.2156 14.0156C19.0053 14.226 18.9002 14.4791 18.9002 14.7749V18.0154ZM20.0018 30.2999C18.5772 30.2999 17.2382 30.0296 15.9847 29.4889C14.7313 28.9482 13.6409 28.2145 12.7137 27.2877C11.7865 26.3608 11.0524 25.2709 10.5115 24.0179C9.97064 22.765 9.7002 21.4262 9.7002 20.0016C9.7002 18.5727 9.97102 17.2297 10.5127 15.9725C11.0543 14.7152 11.7894 13.6216 12.7179 12.6916C13.6465 11.7616 14.7364 11.0305 15.9876 10.4983C17.2389 9.96606 18.5758 9.69995 19.9985 9.69995C21.4272 9.69995 22.7701 9.96595 24.0272 10.498C25.2843 11.03 26.3779 11.7609 27.3081 12.6907C28.2384 13.6206 28.9696 14.714 29.5018 15.971C30.034 17.228 30.3001 18.5711 30.3001 20.0003C30.3001 21.4295 30.0341 22.7681 29.5021 24.0159C28.9701 25.2637 28.2393 26.352 27.3097 27.2809C26.3801 28.2098 25.2869 28.9452 24.0302 29.4871C22.7735 30.029 21.4307 30.2999 20.0018 30.2999ZM20.0002 28.1499C22.2754 28.1499 24.2025 27.3604 25.7816 25.7813C27.3606 24.2023 28.1502 22.2751 28.1502 19.9999C28.1502 17.7247 27.3606 15.7976 25.7816 14.2185C24.2025 12.6395 22.2754 11.8499 20.0002 11.8499C17.725 11.8499 15.7978 12.6395 14.2188 14.2185C12.6397 15.7976 11.8502 17.7247 11.8502 19.9999C11.8502 22.2751 12.6397 24.2023 14.2188 25.7813C15.7978 27.3604 17.725 28.1499 20.0002 28.1499Z" fill="url(#paint1_linear_9504_212603)"/>
</g>
<defs>
<linearGradient id="paint0_linear_9504_212603" x1="0" y1="0" x2="39.7685" y2="0.475241" gradientUnits="userSpaceOnUse">
<stop stop-color="#9BACD2"/>
<stop offset="1" stop-color="#9BACD2"/>
</linearGradient>
<linearGradient id="paint1_linear_9504_212603" x1="9.7002" y1="9.69995" x2="30.1809" y2="9.9447" gradientUnits="userSpaceOnUse">
<stop stop-color="#9BACD2"/>
<stop offset="1" stop-color="#9BACD2"/>
</linearGradient>
</defs>
</svg>
