<svg width="21" height="19" viewBox="0 0 21 19" fill="none" xmlns="http://www.w3.org/2000/svg">
<path d="M4.0193 15.075L1.97005 17.1243C1.77472 17.3196 1.55172 17.3636 1.30105 17.2563C1.05038 17.149 0.925049 16.9584 0.925049 16.6845V3.3828C0.925049 2.68563 1.16038 2.10172 1.63105 1.63105C2.10172 1.16038 2.68563 0.925049 3.3828 0.925049H14.6173C15.3145 0.925049 15.8984 1.16038 16.369 1.63105C16.8397 2.10172 17.075 2.68563 17.075 3.3828V6.95005C17.075 7.23988 16.9683 7.4873 16.7548 7.6923C16.5413 7.89747 16.2881 8.00005 15.9953 8.00005C15.6856 8.00005 15.4299 7.89905 15.228 7.69705C15.026 7.49488 14.925 7.23755 14.925 6.92505V3.3828C14.925 3.29297 14.8962 3.21922 14.8385 3.16155C14.7809 3.10388 14.7071 3.07505 14.6173 3.07505H3.3828C3.29297 3.07505 3.21922 3.10388 3.16155 3.16155C3.10388 3.21922 3.07505 3.29297 3.07505 3.3828V12.925H8.9713C9.26097 12.925 9.51255 13.0318 9.72605 13.2453C9.93955 13.4588 10.0463 13.712 10.0463 14.0048C10.0463 14.3145 9.93955 14.5702 9.72605 14.772C9.51255 14.974 9.26097 15.075 8.9713 15.075H4.0193ZM5.8078 7.07505H12.1923C12.4881 7.07505 12.7413 6.9698 12.9518 6.7593C13.1621 6.5488 13.2673 6.29563 13.2673 5.9998C13.2673 5.7038 13.1621 5.45072 12.9518 5.24055C12.7413 5.03022 12.4881 4.92505 12.1923 4.92505H5.8078C5.51197 4.92505 5.2588 5.0303 5.0483 5.2408C4.83797 5.4513 4.7328 5.70447 4.7328 6.0003C4.7328 6.2963 4.83797 6.54938 5.0483 6.75955C5.2588 6.96988 5.51197 7.07505 5.8078 7.07505ZM5.8078 11.075H9.1923C9.48813 11.075 9.7413 10.9698 9.9518 10.7593C10.1621 10.5488 10.2673 10.2956 10.2673 9.9998C10.2673 9.7038 10.1621 9.45072 9.9518 9.24055C9.7413 9.03022 9.48813 8.92505 9.1923 8.92505H5.8078C5.51197 8.92505 5.2588 9.0303 5.0483 9.2408C4.83797 9.4513 4.7328 9.70447 4.7328 10.0003C4.7328 10.2963 4.83797 10.5494 5.0483 10.7595C5.2588 10.9699 5.51197 11.075 5.8078 11.075ZM14.925 15.075H13C12.7042 15.075 12.4511 14.9698 12.2408 14.7593C12.0303 14.5488 11.925 14.2956 11.925 13.9998C11.925 13.7038 12.0303 13.4507 12.2408 13.2405C12.4511 13.0302 12.7042 12.925 13 12.925H14.925V11C14.925 10.7042 15.0303 10.4511 15.2408 10.2408C15.4513 10.0303 15.7045 9.92505 16.0003 9.92505C16.2963 9.92505 16.5494 10.0303 16.7595 10.2408C16.9699 10.4511 17.075 10.7042 17.075 11V12.925H19C19.2959 12.925 19.549 13.0303 19.7593 13.2408C19.9698 13.4513 20.075 13.7045 20.075 14.0003C20.075 14.2963 19.9698 14.5494 19.7593 14.7595C19.549 14.9699 19.2959 15.075 19 15.075H17.075V17C17.075 17.2959 16.9698 17.549 16.7593 17.7593C16.5488 17.9698 16.2956 18.075 15.9998 18.075C15.7038 18.075 15.4507 17.9698 15.2405 17.7593C15.0302 17.549 14.925 17.2959 14.925 17V15.075Z" fill="url(#paint0_linear_3219_129843)"/>
<defs>
<linearGradient id="paint0_linear_3219_129843" x1="0.925049" y1="0.925049" x2="19.9635" y2="1.17909" gradientUnits="userSpaceOnUse">
<stop stop-color="#9BACD2"/>
<stop offset="1" stop-color="#9BACD2"/>
</linearGradient>
</defs>
</svg>
