<svg width="24" height="24" viewBox="0 0 24 24" fill="none" xmlns="http://www.w3.org/2000/svg">
<mask id="mask0_3289_52693" style="mask-type:alpha" maskUnits="userSpaceOnUse" x="0" y="0" width="24" height="24">
<rect width="24" height="24" fill="#D9D9D9"/>
</mask>
<g mask="url(#mask0_3289_52693)">
<path d="M11.9964 20.5192C11.4866 20.5192 11.0514 20.3377 10.691 19.9746C10.3306 19.6115 10.1504 19.1751 10.1504 18.6652C10.1504 18.1554 10.3319 17.7203 10.695 17.3599C11.0581 16.9995 11.4945 16.8193 12.0043 16.8193C12.5142 16.8193 12.9493 17.0008 13.3097 17.3639C13.6701 17.7269 13.8503 18.1634 13.8503 18.6732C13.8503 19.183 13.6688 19.6182 13.3057 19.9786C12.9427 20.339 12.5062 20.5192 11.9964 20.5192ZM11.9964 13.85C11.4866 13.85 11.0514 13.6685 10.691 13.3054C10.3306 12.9423 10.1504 12.5059 10.1504 11.996C10.1504 11.4862 10.3319 11.0511 10.695 10.6907C11.0581 10.3302 11.4945 10.15 12.0043 10.15C12.5142 10.15 12.9493 10.3316 13.3097 10.6946C13.6701 11.0577 13.8503 11.4942 13.8503 12.004C13.8503 12.5138 13.6688 12.9489 13.3057 13.3094C12.9427 13.6698 12.5062 13.85 11.9964 13.85ZM11.9964 7.18076C11.4866 7.18076 11.0514 6.99923 10.691 6.63616C10.3306 6.27309 10.1504 5.83664 10.1504 5.32681C10.1504 4.81698 10.3319 4.38185 10.695 4.02144C11.0581 3.66104 11.4945 3.48083 12.0043 3.48083C12.5142 3.48083 12.9493 3.66237 13.3097 4.02544C13.6701 4.3885 13.8503 4.82495 13.8503 5.33479C13.8503 5.84462 13.6688 6.27974 13.3057 6.64014C12.9427 7.00055 12.5062 7.18076 11.9964 7.18076Z" fill="#052C85"/>
</g>
</svg>
