<svg width="22" height="22" viewBox="0 0 22 22" fill="none" xmlns="http://www.w3.org/2000/svg">
<path d="M6.65003 18.8422V9.11728C6.65003 8.41817 6.88336 7.83217 7.35003 7.35931C7.81669 6.88642 8.39939 6.64998 9.0981 6.64998H18.8423C19.5394 6.64998 20.1233 6.88532 20.594 7.35601C21.0646 7.82667 21.3 8.41057 21.3 9.10768V15.3653C21.3 15.6997 21.2358 16.0184 21.1074 16.3214C20.979 16.6244 20.8009 16.889 20.5731 17.1153L17.1154 20.573C16.8891 20.8009 16.6244 20.979 16.3214 21.1074C16.0184 21.2358 15.6997 21.3 15.3654 21.3H9.10773C8.41061 21.3 7.82672 21.0646 7.35605 20.594C6.88537 20.1233 6.65003 19.5393 6.65003 18.8422ZM0.750027 5.27306C0.623111 4.59101 0.754694 3.97818 1.14478 3.43458C1.53486 2.891 2.06866 2.55767 2.74618 2.43461L12.3058 0.749981C12.9878 0.623065 13.6044 0.754649 14.1554 1.14473C14.7065 1.53482 15.0444 2.06861 15.1692 2.74613L15.475 4.45768H13.2993L13.05 3.06151C13.0372 2.99099 12.9987 2.9349 12.9346 2.89323C12.8705 2.85157 12.8 2.83714 12.7231 2.84996L3.10963 4.54418C3.01988 4.557 2.95257 4.59866 2.9077 4.66918C2.86282 4.7397 2.84679 4.81983 2.85963 4.90958L4.45773 13.9424V16.873C3.94363 16.7922 3.50292 16.5714 3.1356 16.2105C2.7683 15.8496 2.53465 15.3986 2.43465 14.8576L0.750027 5.27306ZM8.8 9.10768V18.8422C8.8 18.932 8.82885 19.0057 8.88655 19.0634C8.94425 19.1211 9.01798 19.15 9.10773 19.15H15.35L19.15 15.35V9.10768C19.15 9.01793 19.1212 8.94421 19.0635 8.88651C19.0058 8.82881 18.932 8.79996 18.8423 8.79996H9.10773C9.01798 8.79996 8.94425 8.82881 8.88655 8.88651C8.82885 8.94421 8.8 9.01793 8.8 9.10768ZM12.9 15.0499V16.325C12.9 16.6208 13.0053 16.8739 13.2157 17.0843C13.4262 17.2947 13.6794 17.3999 13.9753 17.3999C14.2713 17.3999 14.5244 17.2947 14.7346 17.0843C14.9449 16.8739 15.05 16.6208 15.05 16.325V15.0499H16.325C16.6208 15.0499 16.874 14.9447 17.0844 14.7342C17.2948 14.5237 17.4 14.2705 17.4 13.9746C17.4 13.6787 17.2948 13.4256 17.0844 13.2154C16.874 13.0051 16.6208 12.9 16.325 12.9H15.05V11.625C15.05 11.3291 14.9447 11.076 14.7343 10.8656C14.5238 10.6552 14.2706 10.55 13.9747 10.55C13.6787 10.55 13.4257 10.6552 13.2154 10.8656C13.0052 11.076 12.9 11.3291 12.9 11.625V12.9H11.625C11.3292 12.9 11.0761 13.0052 10.8657 13.2157C10.6552 13.4262 10.55 13.6794 10.55 13.9753C10.55 14.2712 10.6552 14.5243 10.8657 14.7346C11.0761 14.9448 11.3292 15.0499 11.625 15.0499H12.9Z" fill="#052C85"/>
</svg>
