<svg width="38" height="38" viewBox="0 0 38 38" fill="none" xmlns="http://www.w3.org/2000/svg">
<path d="M18.9999 28.4614C19.4576 28.4614 19.8413 28.3067 20.1509 27.9971C20.4605 27.6874 20.6153 27.3038 20.6153 26.8461C20.6153 26.3884 20.4605 26.0047 20.1509 25.6951C19.8413 25.3855 19.4576 25.2307 18.9999 25.2307C18.5422 25.2307 18.1586 25.3855 17.849 25.6951C17.5394 26.0047 17.3846 26.3884 17.3846 26.8461C17.3846 27.3038 17.5394 27.6874 17.849 27.9971C18.1586 28.3067 18.5422 28.4614 18.9999 28.4614ZM19.0006 21.1538C19.4258 21.1538 19.782 21.01 20.0691 20.7226C20.3563 20.4351 20.4999 20.0788 20.4999 19.6539V10.6538C20.4999 10.2288 20.3561 9.87255 20.0685 9.58505C19.7809 9.29755 19.4245 9.1538 18.9993 9.1538C18.5741 9.1538 18.2179 9.29755 17.9307 9.58505C17.6436 9.87255 17.5 10.2288 17.5 10.6538V19.6539C17.5 20.0788 17.6438 20.4351 17.9314 20.7226C18.219 21.01 18.5754 21.1538 19.0006 21.1538ZM19.0033 37.9999C16.3754 37.9999 13.9054 37.5012 11.5931 36.5039C9.2808 35.5066 7.26943 34.1531 5.559 32.4434C3.84853 30.7337 2.49442 28.7232 1.49665 26.4119C0.498884 24.1007 0 21.6312 0 19.0033C0 16.3754 0.498667 13.9054 1.496 11.5931C2.49333 9.2808 3.84683 7.26944 5.5565 5.559C7.2662 3.84854 9.27668 2.49442 11.5879 1.49665C13.8992 0.498886 16.3687 0 18.9966 0C21.6245 0 24.0945 0.498669 26.4068 1.496C28.7191 2.49334 30.7305 3.84683 32.4409 5.5565C34.1514 7.2662 35.5055 9.27668 36.5033 11.588C37.501 13.8992 37.9999 16.3687 37.9999 18.9966C37.9999 21.6245 37.5012 24.0945 36.5039 26.4068C35.5066 28.7191 34.1531 30.7305 32.4434 32.4409C30.7337 34.1514 28.7232 35.5055 26.4119 36.5033C24.1007 37.501 21.6312 37.9999 19.0033 37.9999ZM18.9999 35C23.4666 35 27.25 33.45 30.35 30.35C33.45 27.25 35 23.4666 35 19C35 14.5333 33.45 10.75 30.35 7.64995C27.25 4.54995 23.4666 2.99995 18.9999 2.99995C14.5333 2.99995 10.7499 4.54995 7.64995 7.64995C4.54995 10.75 2.99995 14.5333 2.99995 19C2.99995 23.4666 4.54995 27.25 7.64995 30.35C10.7499 33.45 14.5333 35 18.9999 35Z" fill="#FE4F4F"/>
</svg>
