<svg width="12" height="7" viewBox="0 0 12 7" fill="none" xmlns="http://www.w3.org/2000/svg">
<path d="M5.9998 6.9499C5.86647 6.9499 5.74147 6.92907 5.6248 6.8874C5.50814 6.84574 5.3998 6.7749 5.2998 6.6749L0.699805 2.0749C0.516471 1.89157 0.424805 1.65824 0.424805 1.3749C0.424805 1.09157 0.516471 0.858236 0.699805 0.674902C0.883138 0.491569 1.11647 0.399902 1.3998 0.399902C1.68314 0.399902 1.91647 0.491569 2.0998 0.674902L5.9998 4.5749L9.89981 0.674902C10.0831 0.491569 10.3165 0.399902 10.5998 0.399902C10.8831 0.399902 11.1165 0.491569 11.2998 0.674902C11.4831 0.858236 11.5748 1.09157 11.5748 1.3749C11.5748 1.65824 11.4831 1.89157 11.2998 2.0749L6.6998 6.6749C6.5998 6.7749 6.49147 6.84574 6.3748 6.8874C6.25814 6.92907 6.13314 6.9499 5.9998 6.9499Z" fill="#052C85"/>
</svg>
