<svg width="22" height="22" viewBox="0 0 22 22" fill="none" xmlns="http://www.w3.org/2000/svg">
<path d="M11.581 11.0002L9.24827 13.3329C9.04314 13.5281 8.94057 13.7721 8.94057 14.0648C8.94057 14.3576 9.04169 14.6117 9.24392 14.8271C9.46219 15.0489 9.71267 15.1582 9.99537 15.155C10.2781 15.1518 10.5271 15.0425 10.7425 14.8271L13.7367 11.8578C13.9841 11.6134 14.1078 11.3283 14.1078 11.0024C14.1078 10.6766 13.9841 10.3899 13.7367 10.1425L10.7521 7.15787C10.5397 6.94249 10.2898 6.83576 10.0024 6.8377C9.71503 6.83961 9.46219 6.95147 9.24392 7.17327C9.04169 7.38864 8.94378 7.64344 8.9502 7.93767C8.9566 8.2319 9.05915 8.47837 9.25787 8.67707L11.581 11.0002ZM11.0018 21.3001C9.57725 21.3001 8.23821 21.0298 6.98475 20.4891C5.73126 19.9485 4.64091 19.2147 3.7137 18.2879C2.78646 17.361 2.0524 16.2711 1.51152 15.0182C0.970637 13.7652 0.700195 12.4264 0.700195 11.0018C0.700195 9.57298 0.97102 8.22993 1.51267 6.9727C2.05432 5.71548 2.7894 4.62186 3.71792 3.69185C4.64645 2.76185 5.73635 2.03074 6.98762 1.49852C8.23887 0.966305 9.57583 0.700195 10.9985 0.700195C12.4272 0.700195 13.7701 0.966196 15.0272 1.4982C16.2843 2.0302 17.3779 2.76111 18.3081 3.69095C19.2384 4.6208 19.9696 5.71423 20.5018 6.97125C21.034 8.22826 21.3001 9.57137 21.3001 11.0006C21.3001 12.4298 21.0341 13.7683 20.5021 15.0161C19.9701 16.2639 19.2393 17.3523 18.3097 18.2812C17.3801 19.2101 16.2869 19.9455 15.0302 20.4873C13.7735 21.0292 12.4307 21.3001 11.0018 21.3001ZM11.0002 19.1502C13.2754 19.1502 15.2025 18.3606 16.7816 16.7816C18.3606 15.2025 19.1502 13.2754 19.1502 11.0002C19.1502 8.72495 18.3606 6.79782 16.7816 5.21877C15.2025 3.6397 13.2754 2.85017 11.0002 2.85017C8.72495 2.85017 6.79782 3.6397 5.21877 5.21877C3.6397 6.79782 2.85017 8.72495 2.85017 11.0002C2.85017 13.2754 3.6397 15.2025 5.21877 16.7816C6.79782 18.3606 8.72495 19.1502 11.0002 19.1502Z" fill="#052C85"/>
</svg>
