<svg width="20" height="20" viewBox="0 0 20 20" fill="none" xmlns="http://www.w3.org/2000/svg">
<rect x="0.75" y="0.75" width="18.5" height="18.5" rx="9.25" stroke="black" stroke-width="1.5"/>
<path d="M9.938 15.22C9.41996 15.22 9 14.8 9 14.282V8.822C9 8.30396 9.41996 7.884 9.938 7.884V7.884C10.456 7.884 10.876 8.30396 10.876 8.822V14.282C10.876 14.8 10.456 15.22 9.938 15.22V15.22ZM9.938 6.862C9.42382 6.862 9 6.44518 9 5.931V5.931C9 5.41682 9.42382 5 9.938 5V5C10.4522 5 10.876 5.41682 10.876 5.931V5.931C10.876 6.44518 10.4522 6.862 9.938 6.862V6.862Z" fill="black"/>
</svg>
