<svg width="24" height="24" viewBox="0 0 24 24" fill="none" xmlns="http://www.w3.org/2000/svg">
<rect width="24" height="24" rx="2" fill="#FFA1A1"/>
<mask id="mask0_3252_131073" style="mask-type:alpha" maskUnits="userSpaceOnUse" x="0" y="0" width="24" height="24">
<rect width="24" height="24" fill="#D9D9D9"/>
</mask>
<g mask="url(#mask0_3252_131073)">
<path d="M12.0254 13.5045L7.07731 18.4776C6.85553 18.6994 6.59816 18.8078 6.30521 18.8026C6.01228 18.7975 5.75171 18.6808 5.52351 18.4526C5.31196 18.2244 5.21035 17.9738 5.21868 17.7007C5.22702 17.4277 5.33696 17.177 5.54851 16.9488L10.4716 12.0007L5.52351 7.00262C5.31838 6.78084 5.21421 6.5318 5.21101 6.25552C5.20779 5.97925 5.31196 5.72702 5.52351 5.49882C5.75171 5.2706 6.01068 5.15233 6.30041 5.144C6.59014 5.13566 6.84911 5.2456 7.07731 5.47382L12.0254 10.4469L16.9235 5.47382C17.1453 5.25202 17.4027 5.14369 17.6956 5.14882C17.9885 5.15394 18.2491 5.2706 18.4773 5.49882C18.6889 5.72702 18.7905 5.97765 18.7821 6.25072C18.7738 6.52379 18.6639 6.77442 18.4523 7.00262L13.5292 12.0007L18.4523 16.9488C18.6574 17.1539 18.7658 17.3988 18.7773 17.6834C18.7889 17.968 18.6889 18.2244 18.4773 18.4526C18.2491 18.6808 17.9901 18.7991 17.7004 18.8074C17.4107 18.8158 17.1517 18.7058 16.9235 18.4776L12.0254 13.5045Z" fill="#E35050"/>
</g>
</svg>
