<svg width="150" height="34" viewBox="0 0 150 34" fill="none" xmlns="http://www.w3.org/2000/svg">
<path fill-rule="evenodd" clip-rule="evenodd" d="M33.711 23.1522C31.2737 23.1522 29.1821 22.2969 27.4345 20.5852C25.6893 18.8729 24.8135 16.799 24.8135 14.3595C24.8135 11.9201 25.687 9.83815 27.4345 8.1103C29.1821 6.38475 31.2737 5.52197 33.711 5.52197H38.9301C38.9301 6.49109 38.5861 7.31707 37.8958 8.00223C37.2055 8.6851 36.3762 9.02768 35.408 9.02768H33.7127C32.2747 9.02768 31.0491 9.55592 30.0361 10.6141C29.0213 11.6723 28.5165 12.9202 28.5165 14.3618C28.5165 15.8034 29.023 17.0433 30.0361 18.086C31.0491 19.1309 32.2747 19.6511 33.7127 19.6511H35.408C36.3762 19.6511 37.2055 19.9937 37.8958 20.6749C38.5861 21.36 38.9301 22.186 38.9301 23.1551H33.711V23.1534V23.1522ZM32.478 12.5753H38.9301C38.9301 13.5502 38.5861 14.3785 37.8958 15.0573C37.2055 15.7362 36.3762 16.0788 35.408 16.0788H32.4774C31.9944 16.0788 31.5826 15.9126 31.2444 15.5798C30.9061 15.2487 30.7379 14.8372 30.7379 14.3492C30.7379 13.8612 30.9038 13.4226 31.2329 13.0858C31.5654 12.7432 31.9789 12.5748 32.478 12.5748V12.5753Z" fill="#E77625"/>
<path fill-rule="evenodd" clip-rule="evenodd" d="M58.0173 14.2489V22.011H58.0156C57.9536 24.3384 57.0801 26.3352 55.3865 28.001C53.6332 29.7266 51.5359 30.5893 49.0986 30.5893C46.6613 30.5893 44.5617 29.7243 42.8009 28.001C44.8575 25.9426 46.686 26.5134 47.0363 26.668C47.6686 26.9468 48.3606 27.0859 49.1124 27.0859C50.5699 27.0859 51.8012 26.5617 52.8062 25.511C53.8152 24.4602 54.3177 23.2089 54.3177 21.7541V21.5236C52.8487 22.6111 51.1534 23.1543 49.2301 23.1543C46.7945 23.1543 44.7127 22.28 42.9864 20.5326C41.2624 18.7835 40.4004 16.6901 40.4004 14.2506V5.65163C41.3686 5.65163 42.1939 5.99593 42.8785 6.68684C43.5607 7.37775 43.903 8.20949 43.903 9.1786V14.2495C43.903 15.6888 44.4308 16.9154 45.488 17.9311C46.5453 18.945 47.7921 19.452 49.2301 19.452C50.6681 19.452 51.9092 18.945 52.9509 17.9311C53.995 16.9154 54.5147 15.6888 54.5147 14.2495V9.17688C54.5147 8.20776 54.857 7.37545 55.5393 6.68512C56.2238 5.99421 57.0491 5.6499 58.0173 5.6499V14.2495V14.2489Z" fill="#E77625"/>
<path fill-rule="evenodd" clip-rule="evenodd" d="M77.5289 14.3589V23.1522H68.5906C66.1533 23.1522 64.0577 22.2969 62.3027 20.5852C60.5477 18.8729 59.6719 16.799 59.6719 14.3595C59.6719 11.9201 60.5494 9.83815 62.3027 8.1103C64.056 6.38475 66.1533 5.52197 68.5906 5.52197C71.0279 5.52197 73.1252 6.38475 74.8883 8.1103C76.6473 9.83815 77.5289 11.9218 77.5289 14.3595V14.3589ZM73.7868 19.6483V14.3589C73.7868 12.9041 73.2843 11.6522 72.2752 10.6021C71.2702 9.55132 70.0367 9.0271 68.5797 9.0271C67.1227 9.0271 65.8909 9.55132 64.8859 10.6021C63.8751 11.6528 63.3743 12.9041 63.3743 14.3589C63.3743 15.8138 63.8768 17.0576 64.8859 18.0946C65.8909 19.1298 67.1244 19.6483 68.5797 19.6483H73.7873H73.7868Z" fill="#E77625"/>
<path fill-rule="evenodd" clip-rule="evenodd" d="M19.6855 4.8386V5.52147H14.4663C12.0153 5.52147 9.91222 6.37677 8.15719 8.08852C6.40388 9.80085 5.52637 11.8765 5.52637 14.3142C5.52637 16.7519 6.4079 18.8356 8.1704 20.5634C9.93117 22.289 12.0308 23.1517 14.4681 23.1517C16.9054 23.1517 18.9992 22.289 20.7542 20.5634C22.5093 18.8379 23.3868 16.7542 23.3868 14.3142V1.13574C22.372 1.13574 21.502 1.49959 20.7772 2.22671C20.0484 2.95441 19.6849 3.82466 19.6849 4.8386H19.6855ZM9.27074 14.3148C9.27074 12.8599 9.77497 11.6161 10.7823 10.5791C11.7873 9.54392 13.0226 9.02545 14.4778 9.02545H19.6855V14.3148C19.6855 15.7696 19.183 17.0215 18.174 18.0717C17.169 19.1224 15.9354 19.6483 14.4801 19.6483C13.0249 19.6483 11.7896 19.1241 10.7846 18.0717C9.77382 17.0209 9.27131 15.7696 9.27131 14.3148H9.27074Z" fill="#E77625"/>
<path fill-rule="evenodd" clip-rule="evenodd" d="M3.69958 9.22435C3.69958 8.2104 3.33835 7.34015 2.60957 6.61246C1.88252 5.88533 1.01305 5.52148 0 5.52148V19.4495C0 20.4628 0.363526 21.3337 1.09 22.0614C1.81705 22.7891 2.68653 23.1523 3.69958 23.1523V9.22435Z" fill="#E77625"/>
<path fill-rule="evenodd" clip-rule="evenodd" d="M2.13406 0C3.31308 0 4.26812 0.955892 4.26812 2.13596C4.26812 3.31602 3.31136 4.27364 2.13406 4.27364C0.956767 4.27364 0 3.31602 0 2.13596C0 0.957617 0.955045 0 2.13406 0Z" fill="#275E91"/>
<path fill-rule="evenodd" clip-rule="evenodd" d="M146.734 9.02142H138.026C137.531 9.02142 137.081 9.22433 136.754 9.55139C136.425 9.88018 136.222 10.3308 136.222 10.8246C136.222 11.3183 136.425 11.7707 136.754 12.0978C137.081 12.4248 137.531 12.63 138.026 12.63H144.474C145.908 12.63 147.211 13.2163 148.158 14.1601C149.109 15.1103 149.699 16.4162 149.699 17.8498C149.699 19.2833 149.113 20.5933 148.168 21.5371C147.224 22.4832 145.92 23.0695 144.484 23.0695H132.511C132.733 21.2009 133.764 20.0283 135.729 19.6529H144.484C144.977 19.6529 145.427 19.4477 145.756 19.1207C146.083 18.7919 146.288 18.343 146.288 17.8475C146.288 17.352 146.087 16.8973 145.76 16.5743C145.433 16.2472 144.979 16.0443 144.476 16.0443H138.028C136.592 16.0443 135.287 15.4563 134.344 14.5119C133.401 13.5658 132.813 12.2621 132.813 10.8246C132.813 9.387 133.399 8.08335 134.344 7.13723C135.289 6.19111 136.594 5.60481 138.028 5.60481H150.001C149.831 7.54131 148.768 8.70241 146.734 9.02142H146.734ZM117.129 4.8386V5.52147H122.348C124.799 5.52147 126.902 6.37677 128.655 8.08852C130.409 9.80085 131.286 11.8765 131.286 14.3142C131.286 16.7519 130.405 18.8356 128.644 20.5634C126.881 22.289 124.782 23.1517 122.346 23.1517C119.911 23.1517 117.813 22.289 116.058 20.5634C114.305 18.8379 113.427 16.7542 113.427 14.3142V1.13574C114.44 1.13574 115.31 1.49959 116.037 2.22671C116.766 2.95441 117.129 3.82466 117.129 4.8386H117.129ZM127.543 14.3148C127.543 12.8599 127.041 11.6161 126.032 10.5791C125.027 9.54392 123.793 9.02545 122.336 9.02545H117.129V14.3148C117.129 15.7696 117.631 17.0215 118.64 18.0717C119.645 19.1224 120.879 19.6483 122.334 19.6483C123.789 19.6483 125.025 19.1241 126.03 18.0717C127.04 17.0209 127.543 15.7696 127.543 14.3148H127.543ZM112.208 14.359V23.1523H103.268C100.832 23.1523 98.7347 22.297 96.9814 20.5853C95.2264 18.8729 94.3506 16.799 94.3506 14.3596C94.3506 11.9201 95.2281 9.83822 96.9814 8.11037C98.7347 6.38482 100.832 5.52204 103.268 5.52204C105.703 5.52204 107.805 6.38482 109.565 8.11037C111.326 9.83822 112.208 11.9219 112.208 14.3596V14.359ZM108.463 19.6483V14.359C108.463 12.9042 107.961 11.6523 106.952 10.6021C105.947 9.55139 104.713 9.02717 103.256 9.02717C101.799 9.02717 100.567 9.55139 99.5623 10.6021C98.5515 11.6529 98.0508 12.9042 98.0508 14.359C98.0508 15.8138 98.5533 17.0577 99.5623 18.0946C100.567 19.1299 101.801 19.6483 103.256 19.6483H108.464H108.463ZM83.7578 14.359C83.7578 15.8121 84.2644 17.0577 85.2791 18.0946C86.2922 19.1299 87.5252 19.6483 88.9787 19.6483H92.5703C93.5386 19.6483 94.3638 19.9909 95.0484 20.672C95.7306 21.3572 96.0712 22.1832 96.0712 23.1523H88.9793C86.542 23.1523 84.4464 22.297 82.6914 20.5853C80.9381 18.8729 80.0605 16.799 80.0605 14.3596V1.23231C81.0736 1.23231 81.9431 1.59616 82.6701 2.32328C83.3972 3.05098 83.7601 3.92122 83.7601 4.93517V14.359H83.7584H83.7578Z" fill="#275E91"/>
<path fill-rule="evenodd" clip-rule="evenodd" d="M95.5462 30.347C95.5462 30.9873 95.0282 31.5058 94.3885 31.5058C93.7487 31.5058 93.2324 30.9873 93.2324 30.347C93.2324 29.7067 93.7504 29.1899 94.3885 29.1899C95.0282 29.1917 95.5462 29.7084 95.5462 30.347Z" fill="#E77625"/>
<path fill-rule="evenodd" clip-rule="evenodd" d="M119.042 30.347C119.042 30.9873 118.524 31.5058 117.886 31.5058C117.248 31.5058 116.729 30.9873 116.729 30.347C116.729 29.7067 117.248 29.1899 117.886 29.1899C118.524 29.1917 119.042 29.7084 119.042 30.347Z" fill="#E77625"/>
<path d="M61.1631 28.119H59.6729V27.585H63.2955V28.119H61.7972V32.4817H61.1614V28.119H61.1631Z" fill="#1D1C1A"/>
<path d="M64.1301 27.3237H64.7658V29.5177H64.7796C64.8858 29.3378 65.0443 29.1775 65.2396 29.0671C65.4251 28.9567 65.6513 28.8889 65.8931 28.8889C66.3669 28.8889 67.1169 29.1775 67.1169 30.3903V32.4814H66.4812V30.4598C66.4812 29.8931 66.2664 29.4172 65.6691 29.4172C65.2516 29.4172 64.9306 29.7092 64.8071 30.0558C64.7744 30.1449 64.7646 30.2414 64.7646 30.3592V32.4837H64.1289V27.3237H64.1306H64.1301Z" fill="#1D1C1A"/>
<path d="M71.7001 30.692C71.7001 31.9922 70.7973 32.5629 69.9548 32.5629C69.0021 32.5629 68.2676 31.8686 68.2676 30.754C68.2676 29.578 69.0406 28.8911 70.0111 28.8911C71.0202 28.8894 71.7007 29.6205 71.7007 30.6925L71.7001 30.692ZM68.9165 30.7328C68.9165 31.503 69.357 32.083 69.9795 32.083C70.6021 32.083 71.0483 31.5105 71.0483 30.7132C71.0483 30.1195 70.7485 29.3665 69.991 29.3665C69.2427 29.3665 68.9165 30.0649 68.9165 30.7322V30.7328Z" fill="#1D1C1A"/>
<path d="M75.8048 31.5198C75.8048 31.8894 75.8163 32.2027 75.8336 32.4814H75.269L75.234 31.9066H75.2168C75.0543 32.1889 74.6833 32.5608 74.055 32.5608C73.506 32.5608 72.8467 32.2532 72.8467 31.0209V28.9683H73.4824V30.9088C73.4824 31.5784 73.6915 32.0348 74.2675 32.0348C74.6947 32.0348 74.9945 31.7348 75.1123 31.4485C75.145 31.3554 75.1703 31.2416 75.1703 31.1215V28.97H75.806V31.5198H75.8043H75.8048Z" fill="#1D1C1A"/>
<path d="M80.2628 28.9685C80.2455 29.2162 80.2341 29.5025 80.2341 29.9301V31.9695C80.2341 32.7823 80.0681 33.2697 79.7333 33.579C79.3893 33.8962 78.8983 34.0009 78.4538 34.0009C78.0093 34.0009 77.5665 33.902 77.2822 33.7106L77.4424 33.2191C77.6762 33.3663 78.038 33.4996 78.4767 33.4996C79.128 33.4996 79.6075 33.1594 79.6075 32.269V31.8781H79.5937C79.4025 32.2092 79.0194 32.4702 78.4785 32.4702C77.6027 32.4702 76.9824 31.7252 76.9824 30.7521C76.9824 29.5605 77.7577 28.8892 78.5675 28.8892C79.1762 28.8892 79.507 29.2024 79.6632 29.495H79.6787L79.7057 28.9685H80.2622H80.2628ZM79.6 30.3497C79.6 30.2451 79.5903 30.1503 79.565 30.0635C79.4473 29.6922 79.14 29.3846 78.668 29.3846C78.0592 29.3846 77.6222 29.8991 77.6222 30.7159C77.6222 31.4028 77.9759 31.981 78.6622 31.981C79.0585 31.981 79.414 31.7315 79.5495 31.3211C79.5845 31.2188 79.6 31.0929 79.6 30.9809V30.3503V30.3497Z" fill="#1D1C1A"/>
<path d="M81.6545 27.3237H82.2902V29.5177H82.3057C82.412 29.3378 82.5705 29.1775 82.764 29.0671C82.9495 28.9567 83.1758 28.8889 83.4175 28.8889C83.8913 28.8889 84.6413 29.1775 84.6413 30.3903V32.4814H84.0056V30.4598C84.0056 29.8931 83.7908 29.4172 83.1936 29.4172C82.7761 29.4172 82.455 29.7092 82.3316 30.0558C82.2988 30.1449 82.2891 30.2414 82.2891 30.3592V32.4837H81.6533V27.3237H81.655H81.6545Z" fill="#1D1C1A"/>
<path d="M86.7843 27.9561V28.9677H87.7026V29.4511H86.7843V31.3451C86.7843 31.7825 86.9101 32.0302 87.2673 32.0302C87.4333 32.0302 87.5533 32.0107 87.6366 31.9837L87.6653 32.4694C87.5418 32.5177 87.3425 32.5562 87.095 32.5562C86.801 32.5562 86.5575 32.4596 86.407 32.2854C86.2313 32.0917 86.1595 31.7825 86.1595 31.3686V29.4494H85.6162V28.966H86.1595V28.1204L86.7837 27.9561H86.7843Z" fill="#1D1C1A"/>
<path d="M88.6926 31.8314C88.8861 31.9516 89.2203 32.0809 89.5391 32.0809C90.0048 32.0809 90.2213 31.8527 90.2213 31.5584C90.2213 31.2641 90.0358 31.0899 89.5701 30.914C88.9361 30.6835 88.6346 30.3392 88.6363 29.9179C88.6363 29.3529 89.0963 28.8867 89.8503 28.8867C90.2081 28.8867 90.5154 28.9833 90.7106 29.1034L90.5521 29.5679C90.4166 29.4828 90.1599 29.3609 89.8314 29.3609C89.4547 29.3609 89.2496 29.5776 89.2496 29.8426C89.2496 30.1329 89.4564 30.2622 89.9164 30.4421C90.5217 30.6686 90.8364 30.9721 90.8364 31.4986C90.8364 32.1217 90.3534 32.5568 89.5241 32.5568C89.1394 32.5568 88.7839 32.458 88.5381 32.3114L88.6926 31.8314Z" fill="#1D1C1A"/>
<path d="M98.5732 27.5845V32.4812H97.9375V27.5845H98.5732Z" fill="#1D1C1A"/>
<path d="M103.034 27.3236V31.576C103.034 31.8875 103.046 32.2393 103.063 32.4813H102.494L102.462 31.8737H102.444C102.249 32.2663 101.828 32.5606 101.254 32.5606C100.403 32.5606 99.7481 31.8409 99.7481 30.7747C99.7423 29.6004 100.471 28.8865 101.326 28.8865C101.865 28.8865 102.228 29.14 102.385 29.4187H102.4V27.3213H103.034V27.323V27.3236ZM102.398 30.3976C102.398 30.3143 102.391 30.2079 102.371 30.1246C102.273 29.7222 101.927 29.3894 101.447 29.3894C100.786 29.3894 100.392 29.97 100.392 30.7419C100.392 31.4558 100.747 32.0479 101.436 32.0479C101.863 32.0479 102.251 31.7593 102.37 31.2799C102.393 31.1949 102.401 31.1058 102.401 31.0052V30.3976H102.399H102.398Z" fill="#1D1C1A"/>
<path d="M104.819 30.8408C104.833 31.7036 105.379 32.0594 106.021 32.0594C106.477 32.0594 106.758 31.9783 106.994 31.8794L107.106 32.3341C106.882 32.4364 106.493 32.5583 105.934 32.5583C104.856 32.5583 104.206 31.8386 104.206 30.7845C104.206 29.7303 104.833 28.8882 105.859 28.8882C107.003 28.8882 107.303 29.8941 107.303 30.5402C107.303 30.6735 107.295 30.7707 107.281 30.8402H104.819V30.8408ZM106.686 30.3804C106.692 29.978 106.522 29.3452 105.807 29.3452C105.155 29.3452 104.877 29.9355 104.827 30.3804H106.686H106.686Z" fill="#1D1C1A"/>
<path d="M110.407 32.481L110.35 32.0379H110.331C110.137 32.3126 109.759 32.5621 109.256 32.5621C108.547 32.5621 108.184 32.0591 108.184 31.5539C108.184 30.7026 108.938 30.2347 110.292 30.2439V30.1686C110.292 29.8824 110.213 29.3541 109.492 29.3581C109.166 29.3581 108.823 29.4547 108.578 29.6191L108.433 29.1937C108.723 29.0064 109.148 28.8862 109.591 28.8862C110.664 28.8862 110.927 29.6197 110.927 30.3238V31.6372C110.927 31.9373 110.941 32.2367 110.979 32.4787H110.407V32.4805L110.407 32.481ZM110.308 30.6877C109.618 30.6721 108.825 30.798 108.825 31.4769C108.825 31.8965 109.101 32.0884 109.421 32.0884C109.882 32.0884 110.175 31.7964 110.277 31.5004C110.298 31.4326 110.308 31.3613 110.308 31.2992V30.6877Z" fill="#1D1C1A"/>
<path d="M112.232 31.8309C112.426 31.9511 112.76 32.0804 113.078 32.0804C113.544 32.0804 113.761 31.8522 113.761 31.5579C113.761 31.2636 113.575 31.0894 113.107 30.9136C112.473 30.6831 112.173 30.3388 112.173 29.9174C112.173 29.3524 112.633 28.8862 113.387 28.8862C113.745 28.8862 114.052 28.9828 114.248 29.1029L114.089 29.5674C113.954 29.4823 113.697 29.3604 113.368 29.3604C112.992 29.3604 112.787 29.5771 112.787 29.8421C112.787 30.1324 112.993 30.2617 113.453 30.4416C114.059 30.6681 114.374 30.9716 114.374 31.4981C114.374 32.1212 113.891 32.5563 113.061 32.5563C112.676 32.5563 112.321 32.4575 112.075 32.3109L112.232 31.8309Z" fill="#1D1C1A"/>
<path d="M121.456 27.6443C121.761 27.5902 122.159 27.5454 122.671 27.5454C123.292 27.5454 123.75 27.6885 124.042 27.9518C124.306 28.1857 124.473 28.5421 124.473 28.9772C124.473 29.4124 124.341 29.7705 124.092 30.0257C123.756 30.3838 123.215 30.5614 122.598 30.5614C122.407 30.5614 122.233 30.5539 122.087 30.5148V32.4783H121.455V27.6437L121.456 27.6443ZM122.088 30.0027C122.229 30.0435 122.405 30.0567 122.612 30.0567C123.377 30.0567 123.841 29.6814 123.841 29.0117C123.841 28.3421 123.38 28.0461 122.685 28.0461C122.407 28.0461 122.2 28.0714 122.088 28.0966V30.0021V30.0027Z" fill="#1D1C1A"/>
<path d="M125.545 30.0628C125.545 29.649 125.536 29.2949 125.517 28.9679H126.075L126.101 29.6565H126.124C126.288 29.1846 126.674 28.8862 127.102 28.8862C127.171 28.8862 127.222 28.8903 127.28 28.9035V29.5053C127.214 29.4915 127.15 29.4857 127.063 29.4857C126.613 29.4857 126.296 29.826 126.209 30.3043C126.191 30.3934 126.183 30.498 126.183 30.602V32.4787H125.548V30.0623H125.546L125.545 30.0628Z" fill="#1D1C1A"/>
<path d="M131.387 30.692C131.387 31.9922 130.484 32.5629 129.641 32.5629C128.689 32.5629 127.954 31.8686 127.954 30.754C127.954 29.578 128.727 28.8911 129.698 28.8911C130.707 28.8894 131.387 29.6223 131.387 30.6925L131.387 30.692ZM128.603 30.7328C128.603 31.503 129.044 32.083 129.668 32.083C130.293 32.083 130.737 31.5105 130.737 30.7132C130.737 30.1195 130.437 29.3665 129.68 29.3665C128.93 29.3665 128.603 30.0649 128.603 30.7322V30.7328Z" fill="#1D1C1A"/>
<path d="M135.596 27.3236V31.576C135.596 31.8875 135.607 32.2393 135.624 32.4813H135.056L135.023 31.8737H135.006C134.811 32.2663 134.389 32.5606 133.815 32.5606C132.965 32.5606 132.31 31.8409 132.31 30.7747C132.304 29.6004 133.033 28.8865 133.887 28.8865C134.426 28.8865 134.79 29.14 134.946 29.4187H134.962V27.3213H135.596V27.323V27.3236ZM134.962 30.3976C134.962 30.3143 134.954 30.2079 134.935 30.1246C134.836 29.7222 134.49 29.3894 134.011 29.3894C133.35 29.3894 132.955 29.97 132.955 30.7419C132.955 31.4558 133.311 32.0479 133.999 32.0479C134.426 32.0479 134.815 31.7593 134.933 31.2799C134.956 31.1949 134.964 31.1058 134.964 31.0052V30.3976H134.962H134.962Z" fill="#1D1C1A"/>
<path d="M139.958 31.5198C139.958 31.8894 139.969 32.2027 139.987 32.4814H139.422L139.387 31.9066H139.37C139.207 32.1889 138.836 32.5608 138.208 32.5608C137.659 32.5608 136.998 32.2532 136.998 31.0209V28.9683H137.634V30.9088C137.634 31.5784 137.843 32.0348 138.419 32.0348C138.846 32.0348 139.146 31.7348 139.264 31.4485C139.296 31.3554 139.322 31.2416 139.322 31.1215V28.97H139.957V31.5198H139.958Z" fill="#1D1C1A"/>
<path d="M143.89 32.3536C143.722 32.4369 143.355 32.5565 142.883 32.5565C141.824 32.5565 141.132 31.8351 141.132 30.7614C141.132 29.6876 141.87 28.8887 143.018 28.8887C143.395 28.8887 143.733 28.9835 143.906 29.0761L143.764 29.5675C143.608 29.4842 143.368 29.3991 143.018 29.3991C142.218 29.3991 141.777 30.0009 141.78 30.7303C141.78 31.5448 142.302 32.0461 143.003 32.0461C143.361 32.0461 143.605 31.9552 143.784 31.8776L143.891 32.3536H143.89Z" fill="#1D1C1A"/>
<path d="M145.861 27.9561V28.9677H146.78V29.4511H145.861V31.3451C145.861 31.7825 145.987 32.0302 146.344 32.0302C146.51 32.0302 146.63 32.0107 146.714 31.9837L146.742 32.4694C146.619 32.5177 146.42 32.5562 146.172 32.5562C145.878 32.5562 145.635 32.4596 145.484 32.2854C145.308 32.0917 145.237 31.7825 145.237 31.3686V29.4494H144.693V28.966H145.237V28.1204L145.861 27.9561H145.861Z" fill="#1D1C1A"/>
<path d="M147.771 31.8309C147.964 31.9511 148.298 32.0804 148.617 32.0804C149.083 32.0804 149.299 31.8522 149.299 31.5579C149.299 31.2636 149.114 31.0894 148.648 30.9136C148.014 30.6831 147.713 30.3388 147.714 29.9174C147.714 29.3524 148.174 28.8862 148.928 28.8862C149.286 28.8862 149.593 28.9828 149.789 29.1029L149.63 29.5674C149.495 29.4823 149.238 29.3604 148.91 29.3604C148.533 29.3604 148.328 29.5771 148.328 29.8421C148.328 30.1324 148.535 30.2617 148.995 30.4416C149.6 30.6681 149.915 30.9716 149.915 31.4981C149.915 32.1212 149.432 32.5563 148.602 32.5563C148.218 32.5563 147.862 32.4575 147.616 32.3109L147.771 31.8309Z" fill="#1D1C1A"/>
</svg>
