<svg width="24" height="24" viewBox="0 0 24 24" fill="none" xmlns="http://www.w3.org/2000/svg">
<rect width="23.8549" height="23.8458" rx="2" transform="matrix(0.00648146 -0.999979 0.999981 0.00610584 0 23.8545)" fill="#FFC9A3"/>
<mask id="mask0_3252_131079" style="mask-type:alpha" maskUnits="userSpaceOnUse" x="2" y="2" width="20" height="20">
<rect x="2.28516" y="2.61084" width="19.0767" height="19.0839" fill="#D9D9D9"/>
</mask>
<g mask="url(#mask0_3252_131079)">
<path d="M5.63569 12.1501C5.63569 13.5915 6.06192 14.8719 6.91437 15.9912C7.76681 17.1106 8.85492 17.8247 10.1787 18.1336C10.3723 18.1876 10.529 18.3041 10.6487 18.483C10.7684 18.6619 10.8283 18.8721 10.8283 19.1137C10.8283 19.4347 10.6958 19.6903 10.4309 19.8805C10.1659 20.0707 9.87755 20.1133 9.56572 20.0083C7.815 19.5037 6.39241 18.5296 5.29794 17.0861C4.20348 15.6426 3.65625 13.9982 3.65625 12.153C3.65625 10.3078 4.20348 8.66346 5.29794 7.21993C6.39241 5.77642 7.815 4.80235 9.56572 4.29772C9.87755 4.19272 10.1659 4.23532 10.4309 4.42551C10.6958 4.6157 10.8283 4.87128 10.8283 5.19226C10.8283 5.43386 10.7684 5.64411 10.6487 5.82303C10.529 6.00194 10.3723 6.1184 10.1787 6.17242C8.85492 6.48132 7.76681 7.19448 6.91437 8.31193C6.06192 9.42937 5.63569 10.7088 5.63569 12.1501ZM17.6763 17.9806C17.1821 18.4699 16.6356 18.8928 16.0369 19.2491C15.4382 19.6053 14.7863 19.8584 14.0811 20.0083C13.7598 20.0949 13.4644 20.0455 13.195 19.8599C12.9257 19.6744 12.791 19.4257 12.791 19.1137C12.791 18.8892 12.8517 18.6859 12.973 18.5039C13.0944 18.3218 13.2528 18.1984 13.4483 18.1336C13.9702 17.9995 14.465 17.7909 14.9327 17.5077C15.4003 17.2246 15.8263 16.8943 16.2104 16.5167C16.5895 16.1307 16.9169 15.7101 17.1926 15.2549C17.4682 14.7997 17.6713 14.3076 17.8017 13.7785C17.8665 13.5829 17.9899 13.4244 18.1719 13.303C18.3538 13.1817 18.5571 13.121 18.7815 13.121C19.0963 13.121 19.3456 13.2548 19.5296 13.5224C19.7136 13.79 19.7623 14.0864 19.6757 14.4115C19.5259 15.1038 19.2775 15.7492 18.9306 16.3478C18.5837 16.9464 18.1656 17.4907 17.6763 17.9806ZM17.6763 6.32539C18.1656 6.81532 18.5837 7.35959 18.9306 7.95822C19.2775 8.55684 19.5259 9.20226 19.6757 9.89446C19.7623 10.2159 19.7129 10.5114 19.5274 10.7808C19.342 11.0503 19.0933 11.1851 18.7815 11.1851C18.5571 11.1851 18.3538 11.1244 18.1719 11.003C17.9899 10.8816 17.8665 10.7231 17.8017 10.5275C17.6713 9.99843 17.4682 9.50629 17.1926 9.05111C16.9169 8.59592 16.5895 8.17533 16.2104 7.78933C15.8263 7.41176 15.4003 7.08141 14.9327 6.79827C14.465 6.51516 13.9702 6.30654 13.4483 6.17242C13.2528 6.10761 13.0944 5.98419 12.973 5.80213C12.8517 5.62008 12.791 5.41679 12.791 5.19226C12.791 4.87738 12.9247 4.62791 13.1922 4.44385C13.4597 4.25979 13.756 4.21108 14.0811 4.29772C14.7863 4.44759 15.4382 4.70066 16.0369 5.05695C16.6356 5.41325 17.1821 5.83606 17.6763 6.32539Z" fill="#F48333"/>
</g>
</svg>
