<svg width="22" height="22" viewBox="0 0 22 22" fill="none" xmlns="http://www.w3.org/2000/svg">
<path d="M11.0255 16.1501C11.3214 16.1501 11.5745 16.0449 11.7848 15.8345C11.995 15.6241 12.1001 15.371 12.1001 15.0752V11.0751C12.1001 10.7793 11.9949 10.5262 11.7844 10.3158C11.574 10.1054 11.3208 10.0002 11.0248 10.0002C10.7289 10.0002 10.4758 10.1054 10.2656 10.3158C10.0553 10.5262 9.9502 10.7793 9.9502 11.0751V15.0752C9.9502 15.371 10.0554 15.6241 10.2659 15.8345C10.4764 16.0449 10.7296 16.1501 11.0255 16.1501ZM10.9958 7.88865C11.2942 7.88865 11.5458 7.7877 11.7506 7.58582C11.9554 7.38396 12.0578 7.1338 12.0578 6.83537C12.0578 6.53694 11.9569 6.28531 11.755 6.0805C11.5531 5.8757 11.303 5.7733 11.0045 5.7733C10.7061 5.7733 10.4545 5.87424 10.2497 6.07612C10.0449 6.27801 9.9425 6.52816 9.9425 6.8266C9.9425 7.12503 10.0434 7.37665 10.2453 7.58145C10.4472 7.78625 10.6974 7.88865 10.9958 7.88865ZM11.0018 21.3001C9.57725 21.3001 8.23821 21.0298 6.98475 20.4891C5.73126 19.9485 4.64091 19.2147 3.7137 18.2879C2.78646 17.361 2.0524 16.2711 1.51152 15.0182C0.970637 13.7652 0.700195 12.4264 0.700195 11.0018C0.700195 9.57298 0.97102 8.22993 1.51267 6.9727C2.05432 5.71548 2.7894 4.62186 3.71792 3.69185C4.64645 2.76185 5.73635 2.03074 6.98762 1.49852C8.23887 0.966305 9.57583 0.700195 10.9985 0.700195C12.4272 0.700195 13.7701 0.966196 15.0272 1.4982C16.2843 2.0302 17.3779 2.76111 18.3081 3.69095C19.2384 4.6208 19.9696 5.71423 20.5018 6.97125C21.034 8.22826 21.3001 9.57137 21.3001 11.0006C21.3001 12.4298 21.0341 13.7683 20.5021 15.0161C19.9701 16.2639 19.2393 17.3523 18.3097 18.2812C17.3801 19.2101 16.2869 19.9455 15.0302 20.4873C13.7735 21.0292 12.4307 21.3001 11.0018 21.3001ZM11.0002 19.1502C13.2754 19.1502 15.2025 18.3606 16.7816 16.7816C18.3606 15.2025 19.1502 13.2754 19.1502 11.0002C19.1502 8.72495 18.3606 6.79782 16.7816 5.21877C15.2025 3.6397 13.2754 2.85017 11.0002 2.85017C8.72495 2.85017 6.79782 3.6397 5.21877 5.21877C3.6397 6.79782 2.85017 8.72495 2.85017 11.0002C2.85017 13.2754 3.6397 15.2025 5.21877 16.7816C6.79782 18.3606 8.72495 19.1502 11.0002 19.1502Z" fill="#052C85"/>
</svg>
