<svg width="383" height="126" viewBox="0 0 383 126" fill="none" xmlns="http://www.w3.org/2000/svg">
<path d="M122.953 38.2188H143.719V88H122.953V38.2188ZM122.953 18.8125H143.719V32.0312H122.953V18.8125ZM154.172 88V25.7969H174.891V88H154.172ZM178.172 88V75.5781H188.438V67.7031H207.234V88H178.172ZM218.438 42.5781H240V88H218.438V42.5781ZM202.219 25.7969H256.219V39.3438H202.219V25.7969ZM296.625 81.2031H276.281L280.594 68.875H291.844L275.203 25.7969H295.406L320.203 88H299.25L296.625 81.2031ZM270.75 88H250.734L272.953 28.6094L282.141 53.3125L270.75 88ZM326.109 25.7969H346.828V53.5938H365.953V65.8281H346.828V88H326.109V25.7969ZM350.109 38.2188V25.7969H381.703V46.4219H360.984V38.2188H350.109Z" fill="#052C85"/>
<path d="M119.281 112V102.25H120.5V110.984H128.219V112H119.281ZM128.422 108.293C128.422 107.544 128.502 106.924 128.663 106.433C128.824 105.942 129.082 105.553 129.438 105.265C129.793 104.977 130.254 104.776 130.821 104.662C131.388 104.544 132.078 104.484 132.891 104.484C133.703 104.484 134.393 104.544 134.96 104.662C135.527 104.776 135.988 104.977 136.344 105.265C136.699 105.553 136.957 105.942 137.118 106.433C137.279 106.924 137.359 107.544 137.359 108.293C137.359 109.042 137.279 109.664 137.118 110.159C136.957 110.654 136.699 111.048 136.344 111.34C135.988 111.632 135.527 111.839 134.96 111.962C134.393 112.08 133.703 112.14 132.891 112.14C132.078 112.14 131.388 112.08 130.821 111.962C130.254 111.839 129.793 111.632 129.438 111.34C129.082 111.048 128.824 110.654 128.663 110.159C128.502 109.664 128.422 109.042 128.422 108.293ZM129.641 108.293C129.641 108.699 129.655 109.053 129.685 109.353C129.715 109.653 129.77 109.912 129.85 110.127C129.935 110.343 130.051 110.519 130.199 110.654C130.347 110.79 130.542 110.898 130.783 110.978C131.024 111.058 131.316 111.113 131.659 111.143C132.006 111.173 132.417 111.188 132.891 111.188C133.297 111.188 133.659 111.179 133.976 111.162C134.298 111.141 134.577 111.097 134.814 111.029C135.055 110.961 135.26 110.866 135.43 110.743C135.599 110.616 135.734 110.445 135.836 110.229C135.942 110.013 136.018 109.749 136.064 109.436C136.115 109.118 136.141 108.737 136.141 108.293C136.141 107.857 136.115 107.487 136.064 107.182C136.018 106.873 135.942 106.615 135.836 106.408C135.734 106.2 135.599 106.037 135.43 105.919C135.26 105.796 135.055 105.705 134.814 105.646C134.577 105.583 134.298 105.542 133.976 105.525C133.659 105.508 133.297 105.5 132.891 105.5C132.484 105.5 132.12 105.508 131.799 105.525C131.481 105.542 131.202 105.583 130.961 105.646C130.724 105.705 130.521 105.796 130.352 105.919C130.182 106.037 130.045 106.2 129.939 106.408C129.837 106.615 129.761 106.873 129.71 107.182C129.664 107.487 129.641 107.857 129.641 108.293ZM151.375 104.688L148.531 112H146.906L144.672 106.008L142.438 112H140.812L137.969 104.688H139.391L141.625 111.086L144.062 104.688H145.281L147.693 111.086L149.953 104.688H151.375ZM152.594 107.734H157.469V108.75H152.594V107.734ZM169.65 105.297C169.65 104.789 169.595 104.387 169.485 104.091C169.375 103.795 169.193 103.57 168.939 103.418C168.685 103.266 168.351 103.168 167.936 103.126C167.526 103.084 167.016 103.062 166.406 103.062H163.556C163.014 103.062 162.557 103.079 162.185 103.113C161.817 103.143 161.512 103.206 161.271 103.304C161.03 103.401 160.844 103.541 160.712 103.723C160.581 103.905 160.486 104.146 160.427 104.446C160.368 104.747 160.334 105.117 160.325 105.557C160.317 105.993 160.312 106.516 160.312 107.125C160.312 107.734 160.317 108.259 160.325 108.699C160.338 109.135 160.374 109.503 160.433 109.804C160.492 110.104 160.585 110.345 160.712 110.527C160.844 110.709 161.03 110.849 161.271 110.946C161.512 111.044 161.817 111.109 162.185 111.143C162.557 111.173 163.014 111.188 163.556 111.188H166.406C166.88 111.188 167.289 111.175 167.631 111.149C167.974 111.124 168.266 111.077 168.507 111.01C168.749 110.942 168.943 110.849 169.091 110.73C169.239 110.612 169.354 110.464 169.434 110.286C169.519 110.104 169.576 109.888 169.605 109.639C169.635 109.385 169.65 109.089 169.65 108.75H170.869C170.869 109.156 170.843 109.524 170.792 109.854C170.742 110.18 170.651 110.472 170.52 110.73C170.393 110.984 170.221 111.204 170.005 111.391C169.79 111.577 169.517 111.731 169.187 111.854C168.856 111.972 168.463 112.059 168.006 112.114C167.549 112.174 167.016 112.203 166.406 112.203H163.556C162.811 112.203 162.183 112.157 161.671 112.063C161.163 111.975 160.744 111.839 160.414 111.657C160.084 111.471 159.828 111.238 159.646 110.959C159.468 110.68 159.337 110.352 159.252 109.975C159.172 109.598 159.125 109.173 159.113 108.699C159.1 108.225 159.094 107.701 159.094 107.125C159.094 106.549 159.1 106.025 159.113 105.551C159.125 105.077 159.172 104.652 159.252 104.275C159.337 103.898 159.468 103.57 159.646 103.291C159.828 103.012 160.084 102.781 160.414 102.599C160.744 102.413 161.163 102.275 161.671 102.187C162.183 102.093 162.811 102.047 163.556 102.047H166.406C167.016 102.047 167.549 102.076 168.006 102.136C168.463 102.191 168.856 102.278 169.187 102.396C169.517 102.51 169.79 102.656 170.005 102.834C170.221 103.012 170.393 103.221 170.52 103.462C170.651 103.704 170.742 103.977 170.792 104.281C170.843 104.586 170.869 104.924 170.869 105.297H169.65ZM171.891 108.293C171.891 107.544 171.971 106.924 172.132 106.433C172.293 105.942 172.551 105.553 172.906 105.265C173.262 104.977 173.723 104.776 174.29 104.662C174.857 104.544 175.547 104.484 176.359 104.484C177.172 104.484 177.862 104.544 178.429 104.662C178.996 104.776 179.457 104.977 179.812 105.265C180.168 105.553 180.426 105.942 180.587 106.433C180.748 106.924 180.828 107.544 180.828 108.293C180.828 109.042 180.748 109.664 180.587 110.159C180.426 110.654 180.168 111.048 179.812 111.34C179.457 111.632 178.996 111.839 178.429 111.962C177.862 112.08 177.172 112.14 176.359 112.14C175.547 112.14 174.857 112.08 174.29 111.962C173.723 111.839 173.262 111.632 172.906 111.34C172.551 111.048 172.293 110.654 172.132 110.159C171.971 109.664 171.891 109.042 171.891 108.293ZM173.109 108.293C173.109 108.699 173.124 109.053 173.154 109.353C173.183 109.653 173.238 109.912 173.319 110.127C173.403 110.343 173.52 110.519 173.668 110.654C173.816 110.79 174.011 110.898 174.252 110.978C174.493 111.058 174.785 111.113 175.128 111.143C175.475 111.173 175.885 111.188 176.359 111.188C176.766 111.188 177.127 111.179 177.445 111.162C177.766 111.141 178.046 111.097 178.283 111.029C178.524 110.961 178.729 110.866 178.898 110.743C179.068 110.616 179.203 110.445 179.305 110.229C179.41 110.013 179.487 109.749 179.533 109.436C179.584 109.118 179.609 108.737 179.609 108.293C179.609 107.857 179.584 107.487 179.533 107.182C179.487 106.873 179.41 106.615 179.305 106.408C179.203 106.2 179.068 106.037 178.898 105.919C178.729 105.796 178.524 105.705 178.283 105.646C178.046 105.583 177.766 105.542 177.445 105.525C177.127 105.508 176.766 105.5 176.359 105.5C175.953 105.5 175.589 105.508 175.268 105.525C174.95 105.542 174.671 105.583 174.43 105.646C174.193 105.705 173.99 105.796 173.82 105.919C173.651 106.037 173.514 106.2 173.408 106.408C173.306 106.615 173.23 106.873 173.179 107.182C173.133 107.487 173.109 107.857 173.109 108.293ZM186.516 112.14C185.703 112.14 185.013 112.08 184.446 111.962C183.879 111.843 183.418 111.64 183.062 111.353C182.707 111.065 182.449 110.678 182.288 110.191C182.127 109.704 182.047 109.093 182.047 108.356C182.047 107.595 182.127 106.964 182.288 106.465C182.449 105.965 182.707 105.57 183.062 105.278C183.418 104.986 183.879 104.781 184.446 104.662C185.013 104.544 185.703 104.484 186.516 104.484C187.091 104.484 187.574 104.514 187.963 104.573C188.352 104.632 188.67 104.707 188.915 104.795C189.165 104.884 189.353 104.982 189.48 105.087C189.611 105.189 189.706 105.284 189.766 105.373V102.25H190.984V112H189.766V110.915C189.766 110.915 189.664 111.035 189.461 111.276C189.283 111.45 189.086 111.59 188.871 111.695C188.655 111.801 188.352 111.903 187.963 112C187.574 112.093 187.091 112.14 186.516 112.14ZM186.516 111.188C186.922 111.188 187.284 111.179 187.601 111.162C187.918 111.141 188.198 111.099 188.439 111.035C188.68 110.972 188.883 110.879 189.048 110.756C189.218 110.629 189.355 110.462 189.461 110.254C189.567 110.047 189.643 109.791 189.689 109.486C189.74 109.177 189.766 108.807 189.766 108.375C189.766 107.927 189.74 107.546 189.689 107.233C189.643 106.916 189.567 106.651 189.461 106.439C189.355 106.224 189.218 106.054 189.048 105.932C188.883 105.809 188.68 105.716 188.439 105.652C188.198 105.585 187.918 105.542 187.601 105.525C187.284 105.508 186.922 105.5 186.516 105.5C186.042 105.5 185.631 105.515 185.284 105.544C184.941 105.574 184.649 105.627 184.408 105.703C184.167 105.779 183.97 105.885 183.818 106.021C183.67 106.156 183.553 106.329 183.469 106.541C183.388 106.753 183.333 107.009 183.304 107.309C183.278 107.605 183.266 107.954 183.266 108.356C183.266 108.754 183.278 109.101 183.304 109.397C183.333 109.689 183.388 109.941 183.469 110.153C183.553 110.36 183.67 110.532 183.818 110.667C183.97 110.802 184.167 110.908 184.408 110.984C184.649 111.061 184.941 111.113 185.284 111.143C185.631 111.173 186.042 111.188 186.516 111.188ZM196.875 112.14C196.062 112.14 195.373 112.085 194.806 111.975C194.239 111.86 193.777 111.666 193.422 111.391C193.066 111.116 192.808 110.747 192.647 110.286C192.487 109.825 192.406 109.245 192.406 108.547C192.406 107.747 192.487 107.087 192.647 106.566C192.808 106.042 193.066 105.625 193.422 105.316C193.777 105.007 194.239 104.791 194.806 104.668C195.373 104.546 196.062 104.484 196.875 104.484C197.455 104.484 197.956 104.527 198.379 104.611C198.807 104.696 199.171 104.819 199.471 104.979C199.776 105.14 200.021 105.335 200.208 105.563C200.398 105.792 200.546 106.033 200.652 106.287C200.762 106.537 200.836 106.831 200.874 107.169C200.916 107.508 200.938 107.866 200.938 108.242L200.836 108.648H193.625C193.625 109.207 193.68 109.666 193.79 110.026C193.9 110.381 194.082 110.642 194.336 110.807C194.59 110.972 194.924 111.077 195.339 111.124C195.754 111.166 196.266 111.188 196.875 111.188C197.434 111.188 197.895 111.173 198.259 111.143C198.627 111.109 198.919 111.048 199.135 110.959C199.351 110.87 199.501 110.747 199.585 110.591C199.674 110.43 199.719 110.223 199.719 109.969H200.938C200.938 110.362 200.868 110.699 200.728 110.978C200.593 111.253 200.366 111.477 200.049 111.651C199.731 111.82 199.312 111.943 198.792 112.019C198.276 112.099 197.637 112.14 196.875 112.14ZM196.875 105.5C196.469 105.5 196.105 105.508 195.783 105.525C195.466 105.542 195.187 105.58 194.945 105.64C194.708 105.695 194.505 105.777 194.336 105.887C194.167 105.993 194.029 106.12 193.923 106.268C193.822 106.412 193.746 106.617 193.695 106.884C193.648 107.146 193.625 107.464 193.625 107.836H199.719C199.719 107.341 199.666 106.954 199.56 106.674C199.454 106.391 199.287 106.158 199.059 105.976C198.83 105.794 198.536 105.669 198.176 105.602C197.817 105.534 197.383 105.5 196.875 105.5ZM216.375 102.25V103.266H211.5V112H210.281V103.266H205.406V102.25H216.375ZM219.016 112.14C218.203 112.14 217.513 112.085 216.946 111.975C216.379 111.86 215.918 111.666 215.562 111.391C215.207 111.116 214.949 110.747 214.788 110.286C214.627 109.825 214.547 109.245 214.547 108.547C214.547 107.747 214.627 107.087 214.788 106.566C214.949 106.042 215.207 105.625 215.562 105.316C215.918 105.007 216.379 104.791 216.946 104.668C217.513 104.546 218.203 104.484 219.016 104.484C219.595 104.484 220.097 104.527 220.52 104.611C220.947 104.696 221.311 104.819 221.612 104.979C221.917 105.14 222.162 105.335 222.348 105.563C222.539 105.792 222.687 106.033 222.792 106.287C222.903 106.537 222.977 106.831 223.015 107.169C223.057 107.508 223.078 107.866 223.078 108.242L222.977 108.648H215.766C215.766 109.207 215.821 109.666 215.931 110.026C216.041 110.381 216.223 110.642 216.477 110.807C216.73 110.972 217.065 111.077 217.479 111.124C217.894 111.166 218.406 111.188 219.016 111.188C219.574 111.188 220.035 111.173 220.399 111.143C220.768 111.109 221.06 111.048 221.275 110.959C221.491 110.87 221.641 110.747 221.726 110.591C221.815 110.43 221.859 110.223 221.859 109.969H223.078C223.078 110.362 223.008 110.699 222.869 110.978C222.733 111.253 222.507 111.477 222.189 111.651C221.872 111.82 221.453 111.943 220.933 112.019C220.416 112.099 219.777 112.14 219.016 112.14ZM219.016 105.5C218.609 105.5 218.245 105.508 217.924 105.525C217.606 105.542 217.327 105.58 217.086 105.64C216.849 105.695 216.646 105.777 216.477 105.887C216.307 105.993 216.17 106.12 216.064 106.268C215.962 106.412 215.886 106.617 215.835 106.884C215.789 107.146 215.766 107.464 215.766 107.836H221.859C221.859 107.341 221.806 106.954 221.701 106.674C221.595 106.391 221.428 106.158 221.199 105.976C220.971 105.794 220.677 105.669 220.317 105.602C219.957 105.534 219.523 105.5 219.016 105.5ZM228.969 108.667C228.393 108.667 227.888 108.659 227.452 108.642C227.016 108.625 226.639 108.591 226.322 108.541C226.009 108.486 225.746 108.409 225.535 108.312C225.327 108.215 225.162 108.086 225.04 107.925C224.917 107.76 224.83 107.559 224.779 107.322C224.729 107.081 224.703 106.82 224.703 106.541C224.703 106.16 224.784 105.841 224.944 105.583C225.105 105.32 225.363 105.109 225.719 104.948C226.074 104.783 226.535 104.664 227.103 104.592C227.67 104.52 228.359 104.484 229.172 104.484C229.976 104.484 230.638 104.527 231.159 104.611C231.683 104.696 232.098 104.827 232.403 105.005C232.712 105.178 232.928 105.398 233.05 105.665C233.173 105.932 233.234 106.249 233.234 106.617H232.016C232.016 106.389 231.971 106.202 231.882 106.059C231.798 105.915 231.647 105.803 231.432 105.722C231.216 105.638 230.924 105.58 230.556 105.551C230.192 105.517 229.73 105.5 229.172 105.5C228.562 105.5 228.05 105.508 227.636 105.525C227.221 105.542 226.887 105.585 226.633 105.652C226.379 105.72 226.197 105.824 226.087 105.963C225.977 106.103 225.922 106.296 225.922 106.541C225.922 106.685 225.93 106.827 225.947 106.966C225.968 107.102 226.013 107.214 226.081 107.303C226.148 107.392 226.248 107.459 226.379 107.506C226.51 107.552 226.688 107.588 226.912 107.614C227.141 107.635 227.422 107.648 227.756 107.652C228.091 107.652 228.495 107.652 228.969 107.652C229.544 107.652 230.048 107.665 230.479 107.69C230.915 107.715 231.292 107.76 231.609 107.823C231.927 107.887 232.189 107.984 232.396 108.115C232.604 108.246 232.769 108.39 232.892 108.547C233.019 108.699 233.107 108.881 233.158 109.093C233.209 109.3 233.234 109.541 233.234 109.816C233.234 110.091 233.209 110.339 233.158 110.559C233.107 110.775 233.019 110.967 232.892 111.137C232.765 111.302 232.591 111.446 232.371 111.568C232.155 111.687 231.882 111.784 231.552 111.86C231.222 111.932 230.826 111.985 230.365 112.019C229.908 112.057 229.375 112.076 228.766 112.076C228.004 112.076 227.363 112.038 226.842 111.962C226.326 111.886 225.909 111.765 225.592 111.6C225.274 111.431 225.046 111.213 224.906 110.946C224.771 110.68 224.703 110.354 224.703 109.969H225.922C225.922 110.223 225.964 110.43 226.049 110.591C226.138 110.747 226.29 110.87 226.506 110.959C226.722 111.048 227.012 111.109 227.375 111.143C227.744 111.173 228.207 111.188 228.766 111.188C229.273 111.188 229.705 111.177 230.061 111.156C230.42 111.13 230.721 111.092 230.962 111.042C231.203 110.991 231.394 110.929 231.533 110.857C231.673 110.785 231.779 110.699 231.851 110.597C231.923 110.496 231.967 110.383 231.984 110.261C232.005 110.134 232.016 109.994 232.016 109.842C232.016 109.702 232.005 109.579 231.984 109.474C231.967 109.364 231.925 109.256 231.857 109.15C231.789 109.04 231.69 108.957 231.559 108.902C231.427 108.847 231.248 108.803 231.019 108.769C230.795 108.731 230.515 108.706 230.181 108.693C229.847 108.676 229.443 108.667 228.969 108.667ZM241.969 108.75C241.969 109.372 241.918 109.893 241.816 110.312C241.715 110.726 241.543 111.058 241.302 111.308C241.065 111.558 240.752 111.736 240.363 111.841C239.973 111.947 239.493 112 238.922 112C238.368 112 237.902 111.958 237.525 111.873C237.149 111.788 236.844 111.645 236.611 111.441C236.379 111.238 236.211 110.967 236.11 110.629C236.008 110.29 235.958 109.867 235.958 109.359V105.69H234.453V104.688H235.958V102.688H237.176V104.688H241.766V105.69H237.176V109.359C237.176 109.766 237.206 110.079 237.265 110.299C237.329 110.519 237.428 110.68 237.563 110.781C237.699 110.883 237.877 110.942 238.097 110.959C238.321 110.976 238.594 110.984 238.916 110.984C239.169 110.984 239.396 110.98 239.595 110.972C239.798 110.963 239.973 110.938 240.122 110.896C240.274 110.849 240.403 110.781 240.509 110.692C240.615 110.599 240.699 110.47 240.763 110.305C240.83 110.14 240.879 109.933 240.909 109.683C240.938 109.429 240.953 109.118 240.953 108.75H241.969ZM256.391 109.766H248.672L247.453 112H246.031L251.719 102.25H253.344L259.031 112H257.609L256.391 109.766ZM255.781 108.75L252.531 103.062L249.281 108.75H255.781ZM261.475 104.688V108.75C261.475 109.203 261.509 109.586 261.577 109.899C261.644 110.208 261.78 110.458 261.983 110.648C262.186 110.838 262.474 110.976 262.846 111.061C263.219 111.145 263.709 111.188 264.319 111.188C264.979 111.188 265.519 111.139 265.938 111.042C266.361 110.944 266.693 110.807 266.934 110.629C267.175 110.451 267.34 110.237 267.429 109.988C267.522 109.738 267.569 109.461 267.569 109.156V104.688H268.788V112H267.569V110.781C267.51 110.912 267.41 111.058 267.271 111.219C267.131 111.376 266.921 111.522 266.642 111.657C266.363 111.793 266.001 111.907 265.557 112C265.117 112.093 264.569 112.14 263.913 112.14C263.367 112.14 262.897 112.106 262.503 112.038C262.114 111.975 261.782 111.879 261.507 111.752C261.236 111.621 261.018 111.46 260.853 111.27C260.688 111.08 260.561 110.86 260.472 110.61C260.383 110.356 260.324 110.075 260.294 109.766C260.265 109.457 260.25 109.118 260.25 108.75L260.256 104.688H261.475ZM277.528 108.75C277.528 109.372 277.478 109.893 277.376 110.312C277.274 110.726 277.103 111.058 276.862 111.308C276.625 111.558 276.312 111.736 275.922 111.841C275.533 111.947 275.053 112 274.481 112C273.927 112 273.462 111.958 273.085 111.873C272.708 111.788 272.404 111.645 272.171 111.441C271.938 111.238 271.771 110.967 271.669 110.629C271.568 110.29 271.517 109.867 271.517 109.359V105.69H270.013V104.688H271.517V102.688H272.736V104.688H277.325V105.69H272.736V109.359C272.736 109.766 272.765 110.079 272.825 110.299C272.888 110.519 272.988 110.68 273.123 110.781C273.258 110.883 273.436 110.942 273.656 110.959C273.881 110.976 274.153 110.984 274.475 110.984C274.729 110.984 274.955 110.98 275.154 110.972C275.357 110.963 275.533 110.938 275.681 110.896C275.833 110.849 275.963 110.781 276.068 110.692C276.174 110.599 276.259 110.47 276.322 110.305C276.39 110.14 276.439 109.933 276.468 109.683C276.498 109.429 276.513 109.118 276.513 108.75H277.528ZM278.544 108.293C278.544 107.544 278.624 106.924 278.785 106.433C278.946 105.942 279.204 105.553 279.56 105.265C279.915 104.977 280.376 104.776 280.943 104.662C281.51 104.544 282.2 104.484 283.013 104.484C283.825 104.484 284.515 104.544 285.082 104.662C285.649 104.776 286.11 104.977 286.466 105.265C286.821 105.553 287.079 105.942 287.24 106.433C287.401 106.924 287.481 107.544 287.481 108.293C287.481 109.042 287.401 109.664 287.24 110.159C287.079 110.654 286.821 111.048 286.466 111.34C286.11 111.632 285.649 111.839 285.082 111.962C284.515 112.08 283.825 112.14 283.013 112.14C282.2 112.14 281.51 112.08 280.943 111.962C280.376 111.839 279.915 111.632 279.56 111.34C279.204 111.048 278.946 110.654 278.785 110.159C278.624 109.664 278.544 109.042 278.544 108.293ZM279.763 108.293C279.763 108.699 279.778 109.053 279.807 109.353C279.837 109.653 279.892 109.912 279.972 110.127C280.057 110.343 280.173 110.519 280.321 110.654C280.469 110.79 280.664 110.898 280.905 110.978C281.146 111.058 281.438 111.113 281.781 111.143C282.128 111.173 282.539 111.188 283.013 111.188C283.419 111.188 283.781 111.179 284.098 111.162C284.42 111.141 284.699 111.097 284.936 111.029C285.177 110.961 285.382 110.866 285.552 110.743C285.721 110.616 285.856 110.445 285.958 110.229C286.064 110.013 286.14 109.749 286.187 109.436C286.237 109.118 286.263 108.737 286.263 108.293C286.263 107.857 286.237 107.487 286.187 107.182C286.14 106.873 286.064 106.615 285.958 106.408C285.856 106.2 285.721 106.037 285.552 105.919C285.382 105.796 285.177 105.705 284.936 105.646C284.699 105.583 284.42 105.542 284.098 105.525C283.781 105.508 283.419 105.5 283.013 105.5C282.606 105.5 282.243 105.508 281.921 105.525C281.604 105.542 281.324 105.583 281.083 105.646C280.846 105.705 280.643 105.796 280.474 105.919C280.304 106.037 280.167 106.2 280.061 106.408C279.959 106.615 279.883 106.873 279.833 107.182C279.786 107.487 279.763 107.857 279.763 108.293ZM296.622 112H295.403V107.874C295.403 107.434 295.374 107.064 295.314 106.763C295.259 106.458 295.143 106.213 294.965 106.027C294.792 105.841 294.544 105.707 294.223 105.627C293.905 105.542 293.486 105.5 292.966 105.5C292.395 105.5 291.925 105.549 291.557 105.646C291.188 105.739 290.899 105.872 290.687 106.046C290.475 106.215 290.327 106.42 290.243 106.662C290.162 106.903 290.122 107.172 290.122 107.468V112H288.903V104.688H290.122V105.843C290.126 105.83 290.145 105.788 290.179 105.716C290.213 105.644 290.272 105.559 290.357 105.462C290.446 105.36 290.564 105.252 290.712 105.138C290.865 105.024 291.059 104.918 291.296 104.821C291.538 104.723 291.827 104.643 292.166 104.58C292.505 104.516 292.907 104.484 293.372 104.484C293.829 104.484 294.225 104.514 294.559 104.573C294.898 104.628 295.185 104.713 295.422 104.827C295.664 104.937 295.858 105.077 296.006 105.246C296.159 105.411 296.279 105.602 296.368 105.817C296.44 105.703 296.552 105.57 296.705 105.417C296.857 105.265 297.069 105.119 297.339 104.979C297.614 104.84 297.957 104.723 298.368 104.63C298.778 104.533 299.28 104.484 299.872 104.484C300.359 104.484 300.776 104.518 301.123 104.586C301.474 104.649 301.77 104.747 302.011 104.878C302.252 105.005 302.445 105.164 302.589 105.354C302.737 105.544 302.849 105.767 302.925 106.021C303.006 106.27 303.059 106.552 303.084 106.865C303.109 107.174 303.122 107.51 303.122 107.874V112H301.903V107.874C301.903 107.434 301.874 107.064 301.814 106.763C301.759 106.458 301.643 106.213 301.465 106.027C301.292 105.841 301.044 105.707 300.723 105.627C300.405 105.542 299.986 105.5 299.466 105.5C298.895 105.5 298.425 105.549 298.057 105.646C297.688 105.739 297.399 105.872 297.187 106.046C296.975 106.215 296.827 106.42 296.743 106.662C296.662 106.903 296.622 107.172 296.622 107.468V112ZM312.028 110.997C312.015 111.048 311.92 111.175 311.742 111.378C311.615 111.53 311.446 111.666 311.234 111.784C311.023 111.898 310.739 111.987 310.384 112.051C310.033 112.118 309.569 112.152 308.994 112.152C308.228 112.152 307.574 112.112 307.032 112.032C306.491 111.956 306.048 111.837 305.706 111.676C305.363 111.511 305.111 111.302 304.95 111.048C304.794 110.794 304.715 110.491 304.715 110.14C304.715 109.772 304.758 109.461 304.842 109.207C304.931 108.949 305.058 108.733 305.223 108.56C305.392 108.386 305.596 108.251 305.833 108.153C306.069 108.056 306.338 107.982 306.639 107.931C306.943 107.88 307.276 107.849 307.635 107.836C307.995 107.823 308.378 107.817 308.784 107.817C309.364 107.817 309.848 107.842 310.238 107.893C310.627 107.94 310.944 108.001 311.19 108.077C311.44 108.149 311.628 108.227 311.755 108.312C311.882 108.397 311.973 108.475 312.028 108.547C312.028 108.073 312.007 107.669 311.964 107.334C311.926 107 311.861 106.721 311.768 106.497C311.679 106.272 311.562 106.095 311.418 105.963C311.275 105.828 311.097 105.726 310.885 105.659C310.678 105.591 310.435 105.549 310.155 105.532C309.876 105.511 309.556 105.5 309.197 105.5C308.638 105.5 308.175 105.515 307.807 105.544C307.438 105.57 307.146 105.623 306.931 105.703C306.715 105.784 306.562 105.896 306.474 106.04C306.385 106.179 306.34 106.363 306.34 106.592H305.122C305.122 106.207 305.189 105.881 305.325 105.614C305.464 105.348 305.693 105.132 306.01 104.967C306.332 104.798 306.753 104.675 307.273 104.599C307.794 104.522 308.435 104.484 309.197 104.484C309.942 104.484 310.572 104.546 311.088 104.668C311.605 104.791 312.021 105.007 312.339 105.316C312.66 105.625 312.891 106.042 313.031 106.566C313.175 107.087 313.247 107.747 313.247 108.547V112H312.028V110.997ZM309.197 111.188C309.734 111.188 310.183 111.162 310.542 111.111C310.906 111.061 311.198 110.984 311.418 110.883C311.639 110.781 311.795 110.654 311.888 110.502C311.981 110.35 312.028 110.172 312.028 109.969C312.028 109.766 311.973 109.594 311.863 109.455C311.757 109.311 311.577 109.194 311.323 109.105C311.074 109.017 310.741 108.953 310.327 108.915C309.912 108.873 309.4 108.852 308.791 108.852C308.181 108.852 307.688 108.862 307.312 108.883C306.939 108.904 306.651 108.953 306.448 109.029C306.245 109.105 306.108 109.218 306.036 109.366C305.968 109.514 305.934 109.715 305.934 109.969C305.934 110.223 305.97 110.43 306.042 110.591C306.118 110.747 306.271 110.87 306.499 110.959C306.728 111.048 307.056 111.109 307.483 111.143C307.915 111.173 308.486 111.188 309.197 111.188ZM321.987 108.75C321.987 109.372 321.937 109.893 321.835 110.312C321.733 110.726 321.562 111.058 321.321 111.308C321.084 111.558 320.771 111.736 320.381 111.841C319.992 111.947 319.512 112 318.94 112C318.386 112 317.921 111.958 317.544 111.873C317.167 111.788 316.863 111.645 316.63 111.441C316.397 111.238 316.23 110.967 316.128 110.629C316.027 110.29 315.976 109.867 315.976 109.359V105.69H314.472V104.688H315.976V102.688H317.195V104.688H321.784V105.69H317.195V109.359C317.195 109.766 317.224 110.079 317.284 110.299C317.347 110.519 317.447 110.68 317.582 110.781C317.717 110.883 317.895 110.942 318.115 110.959C318.34 110.976 318.612 110.984 318.934 110.984C319.188 110.984 319.414 110.98 319.613 110.972C319.816 110.963 319.992 110.938 320.14 110.896C320.292 110.849 320.422 110.781 320.527 110.692C320.633 110.599 320.718 110.47 320.781 110.305C320.849 110.14 320.898 109.933 320.927 109.683C320.957 109.429 320.972 109.118 320.972 108.75H321.987ZM324.019 104.688H325.237V112H324.019V104.688ZM325.237 103.469H324.019V102.25H325.237V103.469ZM327.065 108.293C327.065 107.544 327.146 106.924 327.307 106.433C327.467 105.942 327.726 105.553 328.081 105.265C328.437 104.977 328.898 104.776 329.465 104.662C330.032 104.544 330.722 104.484 331.534 104.484C332.347 104.484 333.036 104.544 333.604 104.662C334.171 104.776 334.632 104.977 334.987 105.265C335.343 105.553 335.601 105.942 335.762 106.433C335.923 106.924 336.003 107.544 336.003 108.293C336.003 109.042 335.923 109.664 335.762 110.159C335.601 110.654 335.343 111.048 334.987 111.34C334.632 111.632 334.171 111.839 333.604 111.962C333.036 112.08 332.347 112.14 331.534 112.14C330.722 112.14 330.032 112.08 329.465 111.962C328.898 111.839 328.437 111.632 328.081 111.34C327.726 111.048 327.467 110.654 327.307 110.159C327.146 109.664 327.065 109.042 327.065 108.293ZM328.284 108.293C328.284 108.699 328.299 109.053 328.329 109.353C328.358 109.653 328.413 109.912 328.494 110.127C328.578 110.343 328.695 110.519 328.843 110.654C328.991 110.79 329.186 110.898 329.427 110.978C329.668 111.058 329.96 111.113 330.303 111.143C330.65 111.173 331.06 111.188 331.534 111.188C331.94 111.188 332.302 111.179 332.62 111.162C332.941 111.141 333.221 111.097 333.458 111.029C333.699 110.961 333.904 110.866 334.073 110.743C334.243 110.616 334.378 110.445 334.479 110.229C334.585 110.013 334.661 109.749 334.708 109.436C334.759 109.118 334.784 108.737 334.784 108.293C334.784 107.857 334.759 107.487 334.708 107.182C334.661 106.873 334.585 106.615 334.479 106.408C334.378 106.2 334.243 106.037 334.073 105.919C333.904 105.796 333.699 105.705 333.458 105.646C333.221 105.583 332.941 105.542 332.62 105.525C332.302 105.508 331.94 105.5 331.534 105.5C331.128 105.5 330.764 105.508 330.442 105.525C330.125 105.542 329.846 105.583 329.604 105.646C329.368 105.705 329.164 105.796 328.995 105.919C328.826 106.037 328.688 106.2 328.583 106.408C328.481 106.615 328.405 106.873 328.354 107.182C328.307 107.487 328.284 107.857 328.284 108.293ZM344.737 112V107.938C344.737 107.485 344.703 107.104 344.636 106.795C344.568 106.482 344.433 106.23 344.229 106.04C344.026 105.849 343.739 105.712 343.366 105.627C342.994 105.542 342.503 105.5 341.894 105.5C341.233 105.5 340.692 105.549 340.269 105.646C339.85 105.743 339.52 105.881 339.278 106.059C339.037 106.236 338.87 106.45 338.777 106.7C338.688 106.949 338.644 107.227 338.644 107.531V112H337.425V104.688H338.644V105.906C338.732 105.699 338.859 105.521 339.024 105.373C339.189 105.221 339.376 105.092 339.583 104.986C339.79 104.88 340.015 104.795 340.256 104.732C340.497 104.664 340.738 104.613 340.979 104.58C341.221 104.542 341.453 104.516 341.678 104.503C341.906 104.491 342.114 104.484 342.3 104.484C342.841 104.484 343.307 104.518 343.696 104.586C344.09 104.654 344.422 104.753 344.693 104.884C344.968 105.015 345.188 105.178 345.353 105.373C345.518 105.568 345.645 105.794 345.734 106.052C345.827 106.306 345.888 106.592 345.918 106.909C345.948 107.222 345.962 107.565 345.962 107.938L345.956 112H344.737ZM361.406 102.25V103.266H356.531V112H355.312V103.266H350.438V102.25H361.406ZM359.578 108.293C359.578 107.544 359.659 106.924 359.819 106.433C359.98 105.942 360.238 105.553 360.594 105.265C360.949 104.977 361.41 104.776 361.978 104.662C362.545 104.544 363.234 104.484 364.047 104.484C364.859 104.484 365.549 104.544 366.116 104.662C366.683 104.776 367.145 104.977 367.5 105.265C367.855 105.553 368.114 105.942 368.274 106.433C368.435 106.924 368.516 107.544 368.516 108.293C368.516 109.042 368.435 109.664 368.274 110.159C368.114 110.654 367.855 111.048 367.5 111.34C367.145 111.632 366.683 111.839 366.116 111.962C365.549 112.08 364.859 112.14 364.047 112.14C363.234 112.14 362.545 112.08 361.978 111.962C361.41 111.839 360.949 111.632 360.594 111.34C360.238 111.048 359.98 110.654 359.819 110.159C359.659 109.664 359.578 109.042 359.578 108.293ZM360.797 108.293C360.797 108.699 360.812 109.053 360.841 109.353C360.871 109.653 360.926 109.912 361.006 110.127C361.091 110.343 361.207 110.519 361.355 110.654C361.504 110.79 361.698 110.898 361.939 110.978C362.181 111.058 362.473 111.113 362.815 111.143C363.162 111.173 363.573 111.188 364.047 111.188C364.453 111.188 364.815 111.179 365.132 111.162C365.454 111.141 365.733 111.097 365.97 111.029C366.211 110.961 366.417 110.866 366.586 110.743C366.755 110.616 366.891 110.445 366.992 110.229C367.098 110.013 367.174 109.749 367.221 109.436C367.271 109.118 367.297 108.737 367.297 108.293C367.297 107.857 367.271 107.487 367.221 107.182C367.174 106.873 367.098 106.615 366.992 106.408C366.891 106.2 366.755 106.037 366.586 105.919C366.417 105.796 366.211 105.705 365.97 105.646C365.733 105.583 365.454 105.542 365.132 105.525C364.815 105.508 364.453 105.5 364.047 105.5C363.641 105.5 363.277 105.508 362.955 105.525C362.638 105.542 362.358 105.583 362.117 105.646C361.88 105.705 361.677 105.796 361.508 105.919C361.339 106.037 361.201 106.2 361.095 106.408C360.994 106.615 360.917 106.873 360.867 107.182C360.82 107.487 360.797 107.857 360.797 108.293ZM369.734 108.293C369.734 107.544 369.815 106.924 369.976 106.433C370.136 105.942 370.395 105.553 370.75 105.265C371.105 104.977 371.567 104.776 372.134 104.662C372.701 104.544 373.391 104.484 374.203 104.484C375.016 104.484 375.705 104.544 376.272 104.662C376.84 104.776 377.301 104.977 377.656 105.265C378.012 105.553 378.27 105.942 378.431 106.433C378.591 106.924 378.672 107.544 378.672 108.293C378.672 109.042 378.591 109.664 378.431 110.159C378.27 110.654 378.012 111.048 377.656 111.34C377.301 111.632 376.84 111.839 376.272 111.962C375.705 112.08 375.016 112.14 374.203 112.14C373.391 112.14 372.701 112.08 372.134 111.962C371.567 111.839 371.105 111.632 370.75 111.34C370.395 111.048 370.136 110.654 369.976 110.159C369.815 109.664 369.734 109.042 369.734 108.293ZM370.953 108.293C370.953 108.699 370.968 109.053 370.998 109.353C371.027 109.653 371.082 109.912 371.163 110.127C371.247 110.343 371.364 110.519 371.512 110.654C371.66 110.79 371.854 110.898 372.096 110.978C372.337 111.058 372.629 111.113 372.972 111.143C373.319 111.173 373.729 111.188 374.203 111.188C374.609 111.188 374.971 111.179 375.289 111.162C375.61 111.141 375.889 111.097 376.126 111.029C376.368 110.961 376.573 110.866 376.742 110.743C376.911 110.616 377.047 110.445 377.148 110.229C377.254 110.013 377.33 109.749 377.377 109.436C377.428 109.118 377.453 108.737 377.453 108.293C377.453 107.857 377.428 107.487 377.377 107.182C377.33 106.873 377.254 106.615 377.148 106.408C377.047 106.2 376.911 106.037 376.742 105.919C376.573 105.796 376.368 105.705 376.126 105.646C375.889 105.583 375.61 105.542 375.289 105.525C374.971 105.508 374.609 105.5 374.203 105.5C373.797 105.5 373.433 105.508 373.111 105.525C372.794 105.542 372.515 105.583 372.273 105.646C372.036 105.705 371.833 105.796 371.664 105.919C371.495 106.037 371.357 106.2 371.251 106.408C371.15 106.615 371.074 106.873 371.023 107.182C370.976 107.487 370.953 107.857 370.953 108.293ZM380.5 102.25H381.719V112H380.5V102.25Z" fill="#052C85"/>
<g filter="url(#filter0_d_2002_124041)">
<path d="M95.4989 39.5099C77.856 21.5919 50.8184 2.88117 44.7308 25.185V43.7425H93.3622C95.5412 43.7425 96.7929 41.263 95.4989 39.5099Z" fill="url(#paint0_linear_2002_124041)" shape-rendering="crispEdges"/>
</g>
<g opacity="0.4" filter="url(#filter1_d_2002_124041)">
<path d="M44.7305 32.0043C47.1015 29.5915 48.9853 29.5554 52.8571 30.7L78.8622 43.7422H44.7305V32.0043Z" fill="url(#paint1_linear_2002_124041)"/>
</g>
<g filter="url(#filter2_d_2002_124041)">
<path d="M85.4901 100.499C103.408 82.856 122.119 55.8184 99.815 49.7308H81.2575V98.3622C81.2575 100.541 83.737 101.793 85.4901 100.499Z" fill="url(#paint2_linear_2002_124041)" shape-rendering="crispEdges"/>
</g>
<g opacity="0.4" filter="url(#filter3_d_2002_124041)">
<path d="M92.9957 49.7305C95.4085 52.1015 95.4446 53.9853 94.3 57.8571L81.2578 83.8622V49.7305H92.9957Z" fill="url(#paint3_linear_2002_124041)"/>
</g>
<g filter="url(#filter4_d_2002_124041)">
<path d="M24.5011 86.8964C42.144 104.814 69.1816 123.525 75.2692 101.221V82.6637H26.6378C24.4588 82.6637 23.2071 85.1432 24.5011 86.8964Z" fill="url(#paint4_linear_2002_124041)" shape-rendering="crispEdges"/>
</g>
<g opacity="0.4" filter="url(#filter5_d_2002_124041)">
<path d="M75.2695 94.402C72.8985 96.8148 71.0147 96.8508 67.1429 95.7062L41.1378 82.6641L75.2695 82.6641V94.402Z" fill="url(#paint5_linear_2002_124041)"/>
</g>
<g filter="url(#filter6_d_2002_124041)">
<path d="M34.5099 25.9084C16.5919 43.5513 -2.11883 70.5889 20.185 76.6764H38.7425V28.045C38.7425 25.866 36.263 24.6143 34.5099 25.9084Z" fill="url(#paint6_linear_2002_124041)" shape-rendering="crispEdges"/>
</g>
<g opacity="0.4" filter="url(#filter7_d_2002_124041)">
<path d="M26.847 76.6699C24.4342 74.2989 24.3982 72.4151 25.5428 68.5433L38.585 42.5382V76.6699H26.847Z" fill="url(#paint7_linear_2002_124041)"/>
</g>
<path d="M55.5329 52.0149C53.5354 50.8691 51.916 51.8077 51.916 54.1097V71.0971C51.916 73.4014 53.5354 74.3388 55.5329 73.1941L70.3808 64.679C72.3789 63.5328 72.3789 61.6758 70.3808 60.5299L55.5329 52.0149Z" fill="#052C85"/>
<defs>
<filter id="filter0_d_2002_124041" x="34.7305" y="9" width="71.292" height="48.7422" filterUnits="userSpaceOnUse" color-interpolation-filters="sRGB">
<feFlood flood-opacity="0" result="BackgroundImageFix"/>
<feColorMatrix in="SourceAlpha" type="matrix" values="0 0 0 0 0 0 0 0 0 0 0 0 0 0 0 0 0 0 127 0" result="hardAlpha"/>
<feOffset dy="4"/>
<feGaussianBlur stdDeviation="5"/>
<feComposite in2="hardAlpha" operator="out"/>
<feColorMatrix type="matrix" values="0 0 0 0 0.215686 0 0 0 0 0.278431 0 0 0 0 0.309804 0 0 0 0.37 0"/>
<feBlend mode="normal" in2="BackgroundImageFix" result="effect1_dropShadow_2002_124041"/>
<feBlend mode="normal" in="SourceGraphic" in2="effect1_dropShadow_2002_124041" result="shape"/>
</filter>
<filter id="filter1_d_2002_124041" x="34.7305" y="19.9697" width="54.1318" height="33.7725" filterUnits="userSpaceOnUse" color-interpolation-filters="sRGB">
<feFlood flood-opacity="0" result="BackgroundImageFix"/>
<feColorMatrix in="SourceAlpha" type="matrix" values="0 0 0 0 0 0 0 0 0 0 0 0 0 0 0 0 0 0 127 0" result="hardAlpha"/>
<feOffset/>
<feGaussianBlur stdDeviation="5"/>
<feComposite in2="hardAlpha" operator="out"/>
<feColorMatrix type="matrix" values="0 0 0 0 0.545717 0 0 0 0 0.673175 0 0 0 0 0.958333 0 0 0 1 0"/>
<feBlend mode="normal" in2="BackgroundImageFix" result="effect1_dropShadow_2002_124041"/>
<feBlend mode="normal" in="SourceGraphic" in2="effect1_dropShadow_2002_124041" result="shape"/>
</filter>
<filter id="filter2_d_2002_124041" x="71.2578" y="43.7305" width="48.7422" height="71.292" filterUnits="userSpaceOnUse" color-interpolation-filters="sRGB">
<feFlood flood-opacity="0" result="BackgroundImageFix"/>
<feColorMatrix in="SourceAlpha" type="matrix" values="0 0 0 0 0 0 0 0 0 0 0 0 0 0 0 0 0 0 127 0" result="hardAlpha"/>
<feOffset dy="4"/>
<feGaussianBlur stdDeviation="5"/>
<feComposite in2="hardAlpha" operator="out"/>
<feColorMatrix type="matrix" values="0 0 0 0 0.215686 0 0 0 0 0.278431 0 0 0 0 0.309804 0 0 0 0.37 0"/>
<feBlend mode="normal" in2="BackgroundImageFix" result="effect1_dropShadow_2002_124041"/>
<feBlend mode="normal" in="SourceGraphic" in2="effect1_dropShadow_2002_124041" result="shape"/>
</filter>
<filter id="filter3_d_2002_124041" x="71.2578" y="39.7305" width="33.7725" height="54.1318" filterUnits="userSpaceOnUse" color-interpolation-filters="sRGB">
<feFlood flood-opacity="0" result="BackgroundImageFix"/>
<feColorMatrix in="SourceAlpha" type="matrix" values="0 0 0 0 0 0 0 0 0 0 0 0 0 0 0 0 0 0 127 0" result="hardAlpha"/>
<feOffset/>
<feGaussianBlur stdDeviation="5"/>
<feComposite in2="hardAlpha" operator="out"/>
<feColorMatrix type="matrix" values="0 0 0 0 0.545717 0 0 0 0 0.673175 0 0 0 0 0.958333 0 0 0 1 0"/>
<feBlend mode="normal" in2="BackgroundImageFix" result="effect1_dropShadow_2002_124041"/>
<feBlend mode="normal" in="SourceGraphic" in2="effect1_dropShadow_2002_124041" result="shape"/>
</filter>
<filter id="filter4_d_2002_124041" x="13.9775" y="76.6641" width="71.292" height="48.7422" filterUnits="userSpaceOnUse" color-interpolation-filters="sRGB">
<feFlood flood-opacity="0" result="BackgroundImageFix"/>
<feColorMatrix in="SourceAlpha" type="matrix" values="0 0 0 0 0 0 0 0 0 0 0 0 0 0 0 0 0 0 127 0" result="hardAlpha"/>
<feOffset dy="4"/>
<feGaussianBlur stdDeviation="5"/>
<feComposite in2="hardAlpha" operator="out"/>
<feColorMatrix type="matrix" values="0 0 0 0 0.215686 0 0 0 0 0.278431 0 0 0 0 0.309804 0 0 0 0.37 0"/>
<feBlend mode="normal" in2="BackgroundImageFix" result="effect1_dropShadow_2002_124041"/>
<feBlend mode="normal" in="SourceGraphic" in2="effect1_dropShadow_2002_124041" result="shape"/>
</filter>
<filter id="filter5_d_2002_124041" x="31.1377" y="72.6641" width="54.1318" height="33.7725" filterUnits="userSpaceOnUse" color-interpolation-filters="sRGB">
<feFlood flood-opacity="0" result="BackgroundImageFix"/>
<feColorMatrix in="SourceAlpha" type="matrix" values="0 0 0 0 0 0 0 0 0 0 0 0 0 0 0 0 0 0 127 0" result="hardAlpha"/>
<feOffset/>
<feGaussianBlur stdDeviation="5"/>
<feComposite in2="hardAlpha" operator="out"/>
<feColorMatrix type="matrix" values="0 0 0 0 0.545717 0 0 0 0 0.673175 0 0 0 0 0.958333 0 0 0 1 0"/>
<feBlend mode="normal" in2="BackgroundImageFix" result="effect1_dropShadow_2002_124041"/>
<feBlend mode="normal" in="SourceGraphic" in2="effect1_dropShadow_2002_124041" result="shape"/>
</filter>
<filter id="filter6_d_2002_124041" x="0" y="19.3848" width="48.7422" height="71.292" filterUnits="userSpaceOnUse" color-interpolation-filters="sRGB">
<feFlood flood-opacity="0" result="BackgroundImageFix"/>
<feColorMatrix in="SourceAlpha" type="matrix" values="0 0 0 0 0 0 0 0 0 0 0 0 0 0 0 0 0 0 127 0" result="hardAlpha"/>
<feOffset dy="4"/>
<feGaussianBlur stdDeviation="5"/>
<feComposite in2="hardAlpha" operator="out"/>
<feColorMatrix type="matrix" values="0 0 0 0 0.215686 0 0 0 0 0.278431 0 0 0 0 0.309804 0 0 0 0.37 0"/>
<feBlend mode="normal" in2="BackgroundImageFix" result="effect1_dropShadow_2002_124041"/>
<feBlend mode="normal" in="SourceGraphic" in2="effect1_dropShadow_2002_124041" result="shape"/>
</filter>
<filter id="filter7_d_2002_124041" x="14.8125" y="32.5381" width="33.7725" height="54.1318" filterUnits="userSpaceOnUse" color-interpolation-filters="sRGB">
<feFlood flood-opacity="0" result="BackgroundImageFix"/>
<feColorMatrix in="SourceAlpha" type="matrix" values="0 0 0 0 0 0 0 0 0 0 0 0 0 0 0 0 0 0 127 0" result="hardAlpha"/>
<feOffset/>
<feGaussianBlur stdDeviation="5"/>
<feComposite in2="hardAlpha" operator="out"/>
<feColorMatrix type="matrix" values="0 0 0 0 0.545717 0 0 0 0 0.673175 0 0 0 0 0.958333 0 0 0 1 0"/>
<feBlend mode="normal" in2="BackgroundImageFix" result="effect1_dropShadow_2002_124041"/>
<feBlend mode="normal" in="SourceGraphic" in2="effect1_dropShadow_2002_124041" result="shape"/>
</filter>
<linearGradient id="paint0_linear_2002_124041" x1="44.7308" y1="32.6647" x2="126.168" y2="32.0659" gradientUnits="userSpaceOnUse">
<stop stop-color="#2A63E5"/>
<stop offset="1" stop-color="#5686F4" stop-opacity="0.7"/>
</linearGradient>
<linearGradient id="paint1_linear_2002_124041" x1="61.7964" y1="29.9697" x2="61.7964" y2="43.7422" gradientUnits="userSpaceOnUse">
<stop stop-color="#195FCB"/>
<stop offset="1" stop-color="#0D336F"/>
</linearGradient>
<linearGradient id="paint2_linear_2002_124041" x1="97.7245" y1="49.7308" x2="90.8383" y2="131.168" gradientUnits="userSpaceOnUse">
<stop stop-color="#2A63E5"/>
<stop offset="1" stop-color="#5686F4" stop-opacity="0.7"/>
</linearGradient>
<linearGradient id="paint3_linear_2002_124041" x1="95.0303" y1="66.7964" x2="81.2578" y2="66.7964" gradientUnits="userSpaceOnUse">
<stop stop-color="#195FCB"/>
<stop offset="1" stop-color="#0D336F"/>
</linearGradient>
<linearGradient id="paint4_linear_2002_124041" x1="71.6764" y1="97.035" x2="-6.46738" y2="93.1428" gradientUnits="userSpaceOnUse">
<stop stop-color="#2A63E5"/>
<stop offset="1" stop-color="#5686F4" stop-opacity="0.7"/>
</linearGradient>
<linearGradient id="paint5_linear_2002_124041" x1="58.2036" y1="96.4365" x2="58.2036" y2="82.6641" gradientUnits="userSpaceOnUse">
<stop stop-color="#195FCB"/>
<stop offset="1" stop-color="#0D336F"/>
</linearGradient>
<linearGradient id="paint6_linear_2002_124041" x1="17.485" y1="68.892" x2="24.3713" y2="-4.76076" gradientUnits="userSpaceOnUse">
<stop stop-color="#2A63E5"/>
<stop offset="1" stop-color="#5686F4" stop-opacity="0.7"/>
</linearGradient>
<linearGradient id="paint7_linear_2002_124041" x1="24.8125" y1="59.604" x2="38.585" y2="59.604" gradientUnits="userSpaceOnUse">
<stop stop-color="#195FCB"/>
<stop offset="1" stop-color="#0D336F"/>
</linearGradient>
</defs>
</svg>
