<svg width="21" height="21" viewBox="0 0 21 21" fill="none" xmlns="http://www.w3.org/2000/svg">
<rect width="20" height="20" rx="2" transform="matrix(0.00644254 -0.999979 0.999981 0.00614272 0 20)" fill="#B0AFAF"/>
<mask id="mask0_3498_137132" style="mask-type:alpha" maskUnits="userSpaceOnUse" x="0" y="0" width="20" height="20">
<rect width="20" height="20" fill="#D9D9D9"/>
</mask>
<g mask="url(#mask0_3498_137132)">
<path d="M4.92203 10.8333C4.71411 10.8333 4.53621 10.7517 4.38833 10.5886C4.24045 10.4254 4.1665 10.2291 4.1665 9.99974C4.1665 9.77033 4.24045 9.57413 4.38833 9.41114C4.53621 9.24815 4.71411 9.16666 4.92203 9.16666H15.0776C15.2856 9.16666 15.4635 9.24824 15.6113 9.41139C15.7592 9.57456 15.8332 9.77084 15.8332 10.0002C15.8332 10.2297 15.7592 10.4259 15.6113 10.5888C15.4635 10.7518 15.2856 10.8333 15.0776 10.8333H4.92203Z" fill="#6D6868"/>
</g>
</svg>
