<svg width="24" height="24" viewBox="0 0 24 24" fill="none" xmlns="http://www.w3.org/2000/svg">
<rect width="24" height="24" rx="2" fill="#80FCCA"/>
<mask id="mask0_3252_131068" style="mask-type:alpha" maskUnits="userSpaceOnUse" x="0" y="0" width="24" height="24">
<rect width="24" height="24" fill="#0FA266"/>
</mask>
<g mask="url(#mask0_3252_131068)">
<path d="M9.54978 15.1651L18.1633 6.5516C18.3802 6.33622 18.6337 6.22692 18.924 6.2237C19.2143 6.2205 19.4703 6.32804 19.6921 6.54633C19.9139 6.76461 20.0248 7.01781 20.0248 7.30593C20.0248 7.59404 19.9139 7.849 19.6921 8.0708L10.4075 17.3458C10.1631 17.5932 9.87792 17.7169 9.55205 17.7169C9.22618 17.7169 8.93953 17.5932 8.6921 17.3458L4.3671 13.0208C4.15172 12.8099 4.04498 12.5594 4.0469 12.2693C4.04883 11.9793 4.15894 11.7234 4.37723 11.5016C4.59551 11.2798 4.84871 11.1689 5.13683 11.1689C5.42494 11.1689 5.67989 11.2798 5.90168 11.5016L9.54978 15.1651Z" fill="#0FA266"/>
</g>
</svg>
