<svg width="24" height="24" viewBox="0 0 24 24" fill="none" xmlns="http://www.w3.org/2000/svg">
<rect width="23.8535" height="23.8468" rx="2" transform="matrix(0.00644075 -0.999979 0.999981 0.00614443 0 23.8535)" fill="#F1C1F9"/>
<mask id="mask0_7618_192829" style="mask-type:alpha" maskUnits="userSpaceOnUse" x="0" y="0" width="24" height="24">
<rect width="23.8468" height="23.8535" fill="#D9D9D9"/>
</mask>
<g mask="url(#mask0_7618_192829)">
</g>
<path d="M4.5 7C4.5 6.83424 4.56585 6.67527 4.68306 6.55806C4.80027 6.44085 4.95924 6.375 5.125 6.375H18.875C19.0408 6.375 19.1997 6.44085 19.3169 6.55806C19.4342 6.67527 19.5 6.83424 19.5 7C19.5 7.16576 19.4342 7.32473 19.3169 7.44194C19.1997 7.55915 19.0408 7.625 18.875 7.625H5.125C4.95924 7.625 4.80027 7.55915 4.68306 7.44194C4.56585 7.32473 4.5 7.16576 4.5 7ZM12.625 11.375H5.125C4.95924 11.375 4.80027 11.4408 4.68306 11.5581C4.56585 11.6753 4.5 11.8342 4.5 12C4.5 12.1658 4.56585 12.3247 4.68306 12.4419C4.80027 12.5592 4.95924 12.625 5.125 12.625H12.625C12.7908 12.625 12.9497 12.5592 13.0669 12.4419C13.1842 12.3247 13.25 12.1658 13.25 12C13.25 11.8342 13.1842 11.6753 13.0669 11.5581C12.9497 11.4408 12.7908 11.375 12.625 11.375ZM12.625 16.375H5.125C4.95924 16.375 4.80027 16.4408 4.68306 16.5581C4.56585 16.6753 4.5 16.8342 4.5 17C4.5 17.1658 4.56585 17.3247 4.68306 17.4419C4.80027 17.5592 4.95924 17.625 5.125 17.625H12.625C12.7908 17.625 12.9497 17.5592 13.0669 17.4419C13.1842 17.3247 13.25 17.1658 13.25 17C13.25 16.8342 13.1842 16.6753 13.0669 16.5581C12.9497 16.4408 12.7908 16.375 12.625 16.375ZM21.375 14.5C21.3749 14.6059 21.348 14.7101 21.2966 14.8028C21.2452 14.8955 21.1711 14.9735 21.0813 15.0297L16.0813 18.1547C15.9867 18.2138 15.878 18.2465 15.7665 18.2495C15.655 18.2524 15.5447 18.2255 15.4472 18.1714C15.3496 18.1174 15.2683 18.0382 15.2116 17.9421C15.155 17.846 15.1251 17.7365 15.125 17.625V11.375C15.1251 11.2635 15.155 11.154 15.2116 11.0579C15.2683 10.9618 15.3496 10.8826 15.4472 10.8286C15.5447 10.7745 15.655 10.7476 15.7665 10.7505C15.878 10.7535 15.9867 10.7862 16.0813 10.8453L21.0813 13.9703C21.1711 14.0265 21.2452 14.1045 21.2966 14.1972C21.348 14.2899 21.3749 14.394 21.375 14.5ZM19.5711 14.5L17.8392 15.5825L16.375 16.4977L19.5711 14.5Z" fill="#C525E1"/>
<line x1="5" y1="7" x2="19" y2="7" stroke="#C525E1" stroke-width="2" stroke-linecap="round"/>
<line x1="5" y1="12" x2="13" y2="12" stroke="#C525E1" stroke-width="2" stroke-linecap="round"/>
<line x1="5" y1="17" x2="13" y2="17" stroke="#C525E1" stroke-width="2" stroke-linecap="round"/>
</svg>
