<svg width="22" height="22" viewBox="0 0 22 22" fill="none" xmlns="http://www.w3.org/2000/svg">
<path d="M8.57505 14.5095V7.49051C8.57505 7.24301 8.67797 7.06318 8.8838 6.95101C9.08947 6.83884 9.30255 6.84301 9.52305 6.96351L14.971 10.4885C15.1584 10.6153 15.252 10.7858 15.252 11C15.252 11.2142 15.1584 11.3847 14.971 11.5115L9.52305 15.0365C9.30255 15.157 9.08947 15.1612 8.8838 15.049C8.67797 14.9368 8.57505 14.757 8.57505 14.5095ZM2.32505 17.2403V18.75C2.32505 19.0462 2.21988 19.2993 2.00955 19.5095C1.79938 19.7198 1.54622 19.825 1.25005 19.825C0.953882 19.825 0.700715 19.7198 0.490549 19.5095C0.280215 19.2993 0.175049 19.0462 0.175049 18.75V14.7115C0.175049 14.3705 0.294632 14.0804 0.533799 13.8413C0.772799 13.6023 1.06288 13.4828 1.40405 13.4828H5.4328C5.72897 13.4828 5.98213 13.5878 6.1923 13.798C6.40263 14.0083 6.5078 14.2616 6.5078 14.5578C6.5078 14.8539 6.40263 15.1071 6.1923 15.3173C5.98213 15.5276 5.72897 15.6328 5.4328 15.6328H3.80005C4.57822 16.9044 5.5958 17.8961 6.8528 18.6078C8.10997 19.3193 9.49238 19.675 11 19.675C12.6872 19.675 14.2308 19.2083 15.6308 18.275C17.0308 17.3417 18.0968 16.0955 18.8288 14.5365C19.0006 14.2108 19.2145 13.9641 19.4703 13.7963C19.726 13.6283 20.0269 13.5795 20.373 13.65C20.6859 13.7205 20.9003 13.8945 21.0163 14.172C21.1323 14.4497 21.1211 14.7366 20.9828 15.0328C20.1058 17.0956 18.7689 18.7433 16.972 19.976C15.1754 21.2087 13.1847 21.825 11 21.825C9.26288 21.825 7.64172 21.4276 6.13655 20.6328C4.63138 19.8378 3.36088 18.7069 2.32505 17.2403ZM1.26555 10.325C0.952716 10.325 0.711965 10.2141 0.543299 9.99226C0.374799 9.77059 0.317465 9.50009 0.371299 9.18076C0.491799 8.40126 0.684382 7.68593 0.949049 7.03476C1.21388 6.38343 1.56105 5.72118 1.99055 5.04801C2.15205 4.77251 2.37155 4.61393 2.64905 4.57226C2.92672 4.53059 3.18155 4.62576 3.41355 4.85776C3.63922 5.08343 3.76705 5.35009 3.79705 5.65776C3.82722 5.96543 3.7648 6.27568 3.6098 6.58851C3.35197 7.02568 3.14197 7.45034 2.9798 7.86251C2.81763 8.27468 2.67505 8.72243 2.55205 9.20576C2.46488 9.53526 2.31105 9.80418 2.09055 10.0125C1.87005 10.2208 1.59505 10.325 1.26555 10.325ZM10 1.31926C10 1.64226 9.90163 1.91984 9.7048 2.15201C9.50813 2.38401 9.24505 2.54876 8.91555 2.64626C8.46938 2.76293 8.06263 2.89401 7.6953 3.03951C7.32797 3.18501 6.95072 3.37826 6.56355 3.61926C6.27755 3.79109 5.98072 3.86768 5.67305 3.84901C5.36538 3.83051 5.09872 3.70009 4.87305 3.45776C4.65772 3.21926 4.57088 2.96126 4.61255 2.68376C4.65422 2.40609 4.81288 2.18976 5.08855 2.03476C5.70138 1.63209 6.3033 1.31251 6.8943 1.07601C7.4853 0.839509 8.14047 0.632759 8.8598 0.455759C9.17247 0.385259 9.44072 0.433342 9.66455 0.600009C9.88822 0.766676 10 1.00643 10 1.31926ZM17.123 3.46726C16.8974 3.69293 16.6324 3.81926 16.328 3.84626C16.0235 3.87309 15.72 3.79743 15.4173 3.61926C15.043 3.37826 14.6705 3.17501 14.3 3.00951C13.9295 2.84418 13.5276 2.71476 13.0943 2.62126C12.775 2.52376 12.5128 2.36476 12.3078 2.14426C12.1026 1.92376 12 1.64876 12 1.31926C12 1.00643 12.1077 0.762509 12.323 0.587509C12.5385 0.412509 12.7975 0.360259 13.1 0.430759C13.8129 0.591092 14.4741 0.799425 15.0838 1.05576C15.6933 1.31226 16.3096 1.63859 16.9328 2.03476C17.2148 2.19626 17.3725 2.41576 17.4058 2.69326C17.4391 2.97093 17.3449 3.22893 17.123 3.46726ZM20.7058 10.325C20.3828 10.325 20.111 10.2167 19.8905 10C19.6699 9.78334 19.516 9.51026 19.4288 9.18076C19.3288 8.69109 19.1994 8.23851 19.0405 7.82301C18.8815 7.40768 18.6552 6.99934 18.3615 6.59801C18.1897 6.30184 18.1157 5.99993 18.1395 5.69226C18.1632 5.38459 18.2879 5.11793 18.5135 4.89226C18.752 4.65393 19.01 4.54976 19.2875 4.57976C19.5651 4.60993 19.7814 4.76284 19.9366 5.03851C20.3789 5.68851 20.7257 6.34234 20.977 7.00001C21.2282 7.65768 21.434 8.36793 21.5943 9.13076C21.6648 9.45643 21.6141 9.73684 21.4423 9.97201C21.2705 10.2073 21.025 10.325 20.7058 10.325Z" fill="#052C85"/>
</svg>
