<svg width="20" height="20" viewBox="0 0 20 20" fill="none" xmlns="http://www.w3.org/2000/svg">
<path d="M13.7635 10.5116C13.9507 10.3894 14.0443 10.2201 14.0443 10.0036C14.0443 9.78717 13.9507 9.61547 13.7635 9.48855L8.24047 5.91357C8.01996 5.79306 7.80681 5.79097 7.60105 5.90732C7.39528 6.02366 7.2924 6.20137 7.2924 6.44047V13.5597C7.2924 13.7988 7.39528 13.9765 7.60105 14.0928C7.80681 14.2092 8.01996 14.2071 8.24047 14.0866L13.7635 10.5116ZM3.3078 19.15C2.62391 19.15 2.04333 18.9114 1.56605 18.4341C1.08875 17.9568 0.850098 17.3762 0.850098 16.6923V3.3078C0.850098 2.62392 1.08875 2.04333 1.56605 1.56605C2.04333 1.08875 2.62391 0.850098 3.3078 0.850098H16.6923C17.3762 0.850098 17.9568 1.08875 18.4341 1.56605C18.9114 2.04333 19.15 2.62392 19.15 3.3078V16.6923C19.15 17.3762 18.9114 17.9568 18.4341 18.4341C17.9568 18.9114 17.3762 19.15 16.6923 19.15H3.3078ZM3.3078 17.0001H16.6923C16.7693 17.0001 16.8398 16.968 16.9039 16.9039C16.968 16.8398 17.0001 16.7693 17.0001 16.6923V3.3078C17.0001 3.23087 16.968 3.16034 16.9039 3.09622C16.8398 3.03212 16.7693 3.00007 16.6923 3.00007H3.3078C3.23086 3.00007 3.16034 3.03212 3.09622 3.09622C3.03212 3.16034 3.00007 3.23087 3.00007 3.3078V16.6923C3.00007 16.7693 3.03212 16.8398 3.09622 16.9039C3.16034 16.968 3.23086 17.0001 3.3078 17.0001Z" fill="#052C85"/>
</svg>
