<svg width="24" height="24" viewBox="0 0 24 24" fill="none" xmlns="http://www.w3.org/2000/svg">
<mask id="mask0_123_514" style="mask-type:alpha" maskUnits="userSpaceOnUse" x="0" y="0" width="24" height="24">
<rect width="24" height="24" fill="#D9D9D9"/>
</mask>
<g mask="url(#mask0_123_514)">
<path d="M15.7635 12.5116C15.9507 12.3894 16.0443 12.2201 16.0443 12.0036C16.0443 11.7872 15.9507 11.6155 15.7635 11.4885L10.2405 7.91357C10.02 7.79306 9.80681 7.79097 9.60105 7.90732C9.39528 8.02366 9.2924 8.20137 9.2924 8.44047V15.5597C9.2924 15.7988 9.39528 15.9765 9.60105 16.0928C9.80681 16.2092 10.02 16.2071 10.2405 16.0866L15.7635 12.5116ZM5.3078 21.15C4.62391 21.15 4.04333 20.9114 3.56605 20.4341C3.08875 19.9568 2.8501 19.3762 2.8501 18.6923V5.3078C2.8501 4.62392 3.08875 4.04333 3.56605 3.56605C4.04333 3.08875 4.62391 2.8501 5.3078 2.8501H18.6923C19.3762 2.8501 19.9568 3.08875 20.4341 3.56605C20.9114 4.04333 21.15 4.62392 21.15 5.3078V18.6923C21.15 19.3762 20.9114 19.9568 20.4341 20.4341C19.9568 20.9114 19.3762 21.15 18.6923 21.15H5.3078ZM5.3078 19.0001H18.6923C18.7693 19.0001 18.8398 18.968 18.9039 18.9039C18.968 18.8398 19.0001 18.7693 19.0001 18.6923V5.3078C19.0001 5.23087 18.968 5.16034 18.9039 5.09622C18.8398 5.03212 18.7693 5.00007 18.6923 5.00007H5.3078C5.23086 5.00007 5.16034 5.03212 5.09622 5.09622C5.03212 5.16034 5.00007 5.23087 5.00007 5.3078V18.6923C5.00007 18.7693 5.03212 18.8398 5.09622 18.9039C5.16034 18.968 5.23086 19.0001 5.3078 19.0001Z" fill="white"/>
</g>
</svg>
