<svg width="16" height="24" viewBox="0 0 16 24" fill="none" xmlns="http://www.w3.org/2000/svg">
<mask id="mask0_9394_229663" style="mask-type:alpha" maskUnits="userSpaceOnUse" x="-4" y="0" width="24" height="24">
<rect x="-4" width="24" height="24" fill="#D9D9D9"/>
</mask>
<g mask="url(#mask0_9394_229663)">
<path d="M3 23C2.45 23 1.97917 22.8042 1.5875 22.4125C1.19583 22.0208 1 21.55 1 21V3C1 2.45 1.19583 1.97917 1.5875 1.5875C1.97917 1.19583 2.45 1 3 1H13C13.55 1 14.0208 1.19583 14.4125 1.5875C14.8042 1.97917 15 2.45 15 3V21C15 21.55 14.8042 22.0208 14.4125 22.4125C14.0208 22.8042 13.55 23 13 23H3ZM3 18V21H13V18H3ZM8 20.5C8.28333 20.5 8.52083 20.4042 8.7125 20.2125C8.90417 20.0208 9 19.7833 9 19.5C9 19.2167 8.90417 18.9792 8.7125 18.7875C8.52083 18.5958 8.28333 18.5 8 18.5C7.71667 18.5 7.47917 18.5958 7.2875 18.7875C7.09583 18.9792 7 19.2167 7 19.5C7 19.7833 7.09583 20.0208 7.2875 20.2125C7.47917 20.4042 7.71667 20.5 8 20.5ZM3 16H13V6H3V16ZM3 4H13V3H3V4Z" fill="url(#paint0_linear_9394_229663)"/>
</g>
<defs>
<linearGradient id="paint0_linear_9394_229663" x1="8" y1="1" x2="8" y2="23" gradientUnits="userSpaceOnUse">
<stop stop-color="#1346BC"/>
<stop offset="0.479" stop-color="#1D5AE3"/>
<stop offset="0.929" stop-color="#1448C1"/>
</linearGradient>
</defs>
</svg>
