<svg width="24" height="24" viewBox="0 0 24 24" fill="none" xmlns="http://www.w3.org/2000/svg">
<mask id="mask0_9320_213178" style="mask-type:alpha" maskUnits="userSpaceOnUse" x="0" y="0" width="24" height="24">
<rect width="24" height="24" fill="#D9D9D9"/>
</mask>
<g mask="url(#mask0_9320_213178)">
<path d="M12.7511 12.6963V8.75012C12.7511 8.5373 12.6793 8.3591 12.5357 8.21552C12.3921 8.07193 12.2139 8.00014 12.0011 8.00014C11.7883 8.00014 11.6101 8.07193 11.4665 8.21552C11.3229 8.3591 11.2511 8.5373 11.2511 8.75012V12.9271C11.2511 13.0476 11.2729 13.1623 11.3165 13.2713C11.3601 13.3803 11.4287 13.4815 11.5223 13.5751L14.4473 16.5001C14.5858 16.6386 14.7598 16.7094 14.9694 16.7126C15.179 16.7158 15.3563 16.645 15.5011 16.5001C15.646 16.3553 15.7184 16.1796 15.7184 15.9732C15.7184 15.7668 15.646 15.5912 15.5011 15.4463L12.7511 12.6963ZM12.0011 21.5001C10.8216 21.5001 9.71651 21.277 8.68574 20.8309C7.65498 20.3847 6.75626 19.7783 5.98959 19.0117C5.22294 18.245 4.61654 17.3463 4.17039 16.3155C3.72423 15.2847 3.50114 14.1796 3.50114 13.0001C3.50114 11.8207 3.72423 10.7155 4.17039 9.68477C4.61654 8.654 5.22294 7.75528 5.98959 6.98862C6.75626 6.22197 7.65498 5.61557 8.68574 5.16942C9.71651 4.72325 10.8216 4.50017 12.0011 4.50017C13.1806 4.50017 14.2857 4.72325 15.3165 5.16942C16.3473 5.61557 17.246 6.22197 18.0126 6.98862C18.7793 7.75528 19.3857 8.654 19.8318 9.68477C20.278 10.7155 20.5011 11.8207 20.5011 13.0001C20.5011 14.1796 20.278 15.2847 19.8318 16.3155C19.3857 17.3463 18.7793 18.245 18.0126 19.0117C17.246 19.7783 16.3473 20.3847 15.3165 20.8309C14.2857 21.277 13.1806 21.5001 12.0011 21.5001ZM2.41652 7.28092C2.27165 7.13605 2.19922 6.96041 2.19922 6.75399C2.19922 6.54759 2.27165 6.37196 2.41652 6.22709L5.22807 3.41554C5.36652 3.27709 5.54055 3.20627 5.75017 3.20307C5.95979 3.19985 6.13703 3.27068 6.28189 3.41554C6.42676 3.56043 6.49919 3.73607 6.49919 3.94247C6.49919 4.14887 6.42676 4.3245 6.28189 4.46937L3.47034 7.28092C3.33189 7.41937 3.15786 7.4902 2.94824 7.49342C2.73864 7.49662 2.5614 7.42578 2.41652 7.28092ZM21.5857 7.28092C21.4408 7.42578 21.2652 7.49822 21.0588 7.49822C20.8524 7.49822 20.6768 7.42578 20.5319 7.28092L17.7203 4.46937C17.5819 4.33092 17.5111 4.15688 17.5078 3.94727C17.5046 3.73767 17.5755 3.56043 17.7203 3.41554C17.8652 3.27068 18.0409 3.19824 18.2473 3.19824C18.4537 3.19824 18.6293 3.27068 18.7742 3.41554L21.5857 6.22709C21.7242 6.36554 21.795 6.53957 21.7982 6.74919C21.8014 6.95881 21.7306 7.13605 21.5857 7.28092ZM12.0011 20.0001C13.9447 20.0001 15.5973 19.3194 16.9588 17.9578C18.3204 16.5963 19.0011 14.9437 19.0011 13.0001C19.0011 11.0566 18.3204 9.40399 16.9588 8.04244C15.5973 6.68091 13.9447 6.00014 12.0011 6.00014C10.0575 6.00014 8.40497 6.68091 7.04342 8.04244C5.68188 9.40399 5.00112 11.0566 5.00112 13.0001C5.00112 14.9437 5.68188 16.5963 7.04342 17.9578C8.40497 19.3194 10.0575 20.0001 12.0011 20.0001Z" fill="#020A14"/>
</g>
</svg>
