<svg width="44" height="44" viewBox="0 0 44 44" fill="none" xmlns="http://www.w3.org/2000/svg">
<g filter="url(#filter0_d_9425_230020)">
<rect x="4" y="4" width="36" height="36" rx="2" fill="#9FBCFD" shape-rendering="crispEdges"/>
<mask id="mask0_9425_230020" style="mask-type:alpha" maskUnits="userSpaceOnUse" x="4" y="4" width="36" height="36">
<rect x="4" y="4" width="36" height="36" fill="#0FA266"/>
</mask>
<g mask="url(#mask0_9425_230020)">
<path d="M29.3007 28.6667H19.7845L25.3923 23.1667C26.072 22.5 26.072 21.5 25.3923 20.8333L19.7845 15.3333H29.3007C30.3203 15.3333 31 14.6667 31 13.6667C31 12.6667 30.3203 12 29.3007 12H15.7062C15.0265 12 14.3467 12.3333 14.1768 13C13.837 13.6667 14.0069 14.3333 14.5167 14.8333L21.8237 22L14.5167 29.1667C14.0069 29.6667 13.837 30.3333 14.1768 31C14.3467 31.6667 15.0265 32 15.7062 32H29.3007C30.3203 32 31 31.3333 31 30.3333C31 29.3333 30.3203 28.6667 29.3007 28.6667Z" fill="#000088"/>
</g>
</g>
<defs>
<filter id="filter0_d_9425_230020" x="0" y="0" width="44" height="44" filterUnits="userSpaceOnUse" color-interpolation-filters="sRGB">
<feFlood flood-opacity="0" result="BackgroundImageFix"/>
<feColorMatrix in="SourceAlpha" type="matrix" values="0 0 0 0 0 0 0 0 0 0 0 0 0 0 0 0 0 0 127 0" result="hardAlpha"/>
<feOffset/>
<feGaussianBlur stdDeviation="2"/>
<feComposite in2="hardAlpha" operator="out"/>
<feColorMatrix type="matrix" values="0 0 0 0 0.529167 0 0 0 0 0.529167 0 0 0 0 0.529167 0 0 0 0.25 0"/>
<feBlend mode="normal" in2="BackgroundImageFix" result="effect1_dropShadow_9425_230020"/>
<feBlend mode="normal" in="SourceGraphic" in2="effect1_dropShadow_9425_230020" result="shape"/>
</filter>
</defs>
</svg>
