<svg width="22" height="18" viewBox="0 0 22 18" fill="none" xmlns="http://www.w3.org/2000/svg">
<path d="M3.15772 17.3C2.47384 17.3 1.89326 17.0614 1.41597 16.5841C0.938655 16.1068 0.699997 15.5262 0.699997 14.8423V3.15777C0.699997 2.47389 0.938647 1.89331 1.41595 1.41602C1.89323 0.938723 2.47381 0.700073 3.1577 0.700073H7.125C7.4565 0.700073 7.77446 0.764265 8.07887 0.892648C8.38331 1.02101 8.64867 1.19913 8.87497 1.427L10.798 3.35007H18.8423C19.5262 3.35007 20.1067 3.58872 20.584 4.06602C21.0613 4.54331 21.3 5.12389 21.3 5.80777V14.8423C21.3 15.5262 21.0613 16.1068 20.584 16.5841C20.1067 17.0614 19.5262 17.3 18.8423 17.3H3.15772ZM3.15772 15.15H18.8423C18.932 15.15 19.0057 15.1212 19.0634 15.0635C19.1211 15.0058 19.15 14.9321 19.15 14.8423V5.80777C19.15 5.71802 19.1211 5.6443 19.0634 5.5866C19.0057 5.5289 18.932 5.50005 18.8423 5.50005H9.90962L7.34615 2.9366C7.3141 2.90455 7.28045 2.88211 7.2452 2.86927C7.20993 2.85646 7.17306 2.85005 7.1346 2.85005H3.15772C3.06797 2.85005 2.99425 2.8789 2.93655 2.9366C2.87885 2.9943 2.85 3.06802 2.85 3.15777V14.8423C2.85 14.9321 2.87885 15.0058 2.93655 15.0635C2.99425 15.1212 3.06797 15.15 3.15772 15.15ZM11.0712 11.4L10.7539 11.7174C10.5654 11.9058 10.4696 12.1299 10.4664 12.3895C10.4632 12.6491 10.584 12.9013 10.8289 13.1462C11.0404 13.3577 11.291 13.4635 11.5808 13.4635C11.8705 13.4635 12.1211 13.3577 12.3327 13.1462L14.2961 11.1827C14.5436 10.9383 14.6673 10.6532 14.6673 10.3273C14.6673 10.0015 14.5436 9.71481 14.2961 9.46737L12.3327 7.50392C12.1276 7.29879 11.8785 7.19462 11.5856 7.19142C11.2926 7.18822 11.0154 7.31739 10.7539 7.57892C10.559 7.77379 10.4616 7.99942 10.4616 8.25582C10.4616 8.51222 10.559 8.73786 10.7539 8.93272L11.0712 9.25007H7.87115C7.57501 9.25007 7.32181 9.3552 7.11155 9.56545C6.9013 9.7757 6.79617 10.0289 6.79617 10.325C6.79617 10.6212 6.9013 10.8744 7.11155 11.0846C7.32181 11.2949 7.57501 11.4 7.87115 11.4H11.0712Z" fill="#052C85"/>
</svg>
