<svg width="20" height="20" viewBox="0 0 20 20" fill="none" xmlns="http://www.w3.org/2000/svg">
<path fill-rule="evenodd" clip-rule="evenodd" d="M18.3333 13.1253V9.79199C18.3333 7.43533 18.3333 6.25616 17.6008 5.52449C16.9133 4.83616 15.8317 4.79449 13.75 4.79199V18.1253C15.8317 18.1228 16.9133 18.0812 17.6008 17.3928C18.3333 16.6612 18.3333 15.4812 18.3333 13.1253ZM15.8333 8.95949C16.0543 8.95949 16.2663 9.04729 16.4226 9.20357C16.5789 9.35985 16.6667 9.57181 16.6667 9.79283C16.6667 10.0138 16.5789 10.2258 16.4226 10.3821C16.2663 10.5384 16.0543 10.6262 15.8333 10.6262C15.6123 10.6262 15.4004 10.5384 15.2441 10.3821C15.0878 10.2258 15 10.0138 15 9.79283C15 9.57181 15.0878 9.35985 15.2441 9.20357C15.4004 9.04729 15.6123 8.95949 15.8333 8.95949ZM15.8333 12.2928C16.0543 12.2928 16.2663 12.3806 16.4226 12.5369C16.5789 12.6932 16.6667 12.9051 16.6667 13.1262C16.6667 13.3472 16.5789 13.5591 16.4226 13.7154C16.2663 13.8717 16.0543 13.9595 15.8333 13.9595C15.6123 13.9595 15.4004 13.8717 15.2441 13.7154C15.0878 13.5591 15 13.3472 15 13.1262C15 12.9051 15.0878 12.6932 15.2441 12.5369C15.4004 12.3806 15.6123 12.2928 15.8333 12.2928Z" fill="#052C85"/>
<path d="M12.9753 2.69896L11.1795 4.7923H12.5003V18.1256H6.66699C4.31033 18.1256 3.13116 18.1256 2.39949 17.3931C1.66699 16.6615 1.66699 15.4823 1.66699 13.1265V9.79313C1.66699 7.4348 1.66699 6.25646 2.39949 5.5248C3.13116 4.7923 4.31033 4.7923 6.66699 4.7923H8.82033L7.02533 2.69896C6.92377 2.57244 6.87539 2.41138 6.89041 2.24984C6.90544 2.0883 6.98269 1.93893 7.10584 1.83331C7.229 1.72769 7.38839 1.67409 7.55034 1.68386C7.71228 1.69362 7.86409 1.76598 7.97366 1.88563L10.0003 4.24896L12.0253 1.88563C12.1332 1.75965 12.2867 1.68168 12.452 1.66886C12.6174 1.65605 12.781 1.70944 12.907 1.8173C13.033 1.92515 13.1109 2.07863 13.1238 2.24398C13.1366 2.40932 13.0832 2.57298 12.9753 2.69896Z" fill="#052C85"/>
</svg>
